<?xml version="1.0" standalone="no"?>
<!DOCTYPE svg PUBLIC "-//W3C//DTD SVG 1.1//EN" "http://www.w3.org/Graphics/SVG/1.1/DTD/svg11.dtd">
<svg xmlns="http://www.w3.org/2000/svg">
<metadata>Copyright (C) 2019 by original authors @ fontello.com</metadata>
<defs>
<font id="flo-admin-icons" horiz-adv-x="1000" >
<font-face font-family="flo-admin-icons" font-weight="400" font-stretch="normal" units-per-em="1000" ascent="850" descent="-150" />
<missing-glyph horiz-adv-x="1000" />
<glyph glyph-name="desktop" unicode="&#xe800;" d="M1347-23v873h-1347v-873h653v-80h-244v-47h535v47h-244v80h647z m-1300 826h1254v-779h-1254v779z" horiz-adv-x="1347" />

<glyph glyph-name="refresh-1" unicode="&#xe801;" d="M186 140l116 116 0-292-276 16 88 86q-116 122-114 290t120 288q100 100 240 116l4-102q-100-16-172-88-88-88-90-213t84-217z m332 598l276-16-88-86q116-122 114-290t-120-288q-96-98-240-118l-2 104q98 16 170 88 88 88 90 213t-84 217l-114-116z" horiz-adv-x="820" />

<glyph glyph-name="move" unicode="&#xe802;" d="M222 850h1334v-111h-1334v111z m-222-444h1778v-112h-1778v112z m222-445h1334v-111h-1334v111z" horiz-adv-x="1778" />

<glyph glyph-name="arrow-down" unicode="&#xe803;" d="M275 428l215-220 8-8 9 8 220 220-74 72-156-157-155 157-67-72z" horiz-adv-x="1000" />

<glyph glyph-name="arrow-up" unicode="&#xe804;" d="M723 272l-220 218-8 8-5-8-217-220 67-72 157 157 156-157 70 74z" horiz-adv-x="1000" />

<glyph glyph-name="close" unicode="&#xe805;" d="M733 510l-73 73-160-160-160 160-73-73 160-160-160-160 73-73 160 160 160-160 73 73-160 160 160 160z" horiz-adv-x="1000" />

<glyph glyph-name="letters" unicode="&#xe806;" d="M555 113l-180 480h-85l-182-480h84l46 132h185l49-132h83z m-295 200l45 125c10 32 22 62 25 89 2-9 5-24 13-42 5-18 10-32 14-42l45-128-142-2z m632-200v245c0 45-14 77-37 94-23 21-60 31-103 31-22 0-45-1-69-8-23-5-45-13-65-23l25-55c15 8 32 13 49 18 18 5 33 8 55 8 23 0 38-5 48-18 10-10 15-28 15-53v-19l-60-3c-57-2-100-13-127-32-28-18-41-46-41-83 0-37 10-62 31-80 22-18 47-28 84-28 28 0 53 5 68 13 18 8 37 23 53 45h2l15-48 57-4z m-212 65c-10 9-15 22-15 37 0 23 8 38 25 48 15 10 45 15 80 19l47 1v-31c0-29-9-49-25-65-17-17-39-24-69-24-20 2-36 7-43 15z" horiz-adv-x="1000" />

<glyph glyph-name="link" unicode="&#xe807;" d="M748 100c-35-35-93-35-133 0l-105 105c-30 30-35 73-17 110l-25 30c-35-18-80-17-110 17l-106 105c-35 35-35 93 0 133 35 35 93 35 133 0l105-105c30-30 35-73 17-110l30-30c35 18 80 17 110-17l105-105c33-35 33-95-4-133z m-306 348l-100 102c-14 13-32 13-47 0-13-13-13-32 0-47l102-101c13-14 31-14 46 0 14 15 10 38-1 46z m258-256l-102 101c-13 14-31 14-46 0-14-13-14-31 0-46l101-102c14-13 32-13 47 0s13 37 0 47z" horiz-adv-x="1000" />

<glyph glyph-name="paragraph" unicode="&#xe808;" d="M750 785h-282c-76 0-130-20-165-60-35-42-53-102-53-187 0-80 15-140 50-180 35-36 85-60 153-60 27 0 50 5 72 7v-392h65v797h90v-797h65l5 872z" horiz-adv-x="1000" />

<glyph glyph-name="pen" unicode="&#xe809;" d="M782 630c-45 35-112 42-149 7l-383-384c-18-18-25-36-30-45-20-55-27-130-27-150l2-11 13-5c20 0 97 6 150 26 9 2 30 12 45 30l382 384c37 35 25 105-3 148z m-397-460c0 18 0 27-18 48-20 19-35 17-49 19 12 18 310 326 310 326 20 0 39-1 64-18 16-20 20-42 18-63 5-2-307-302-325-312z" horiz-adv-x="1000" />

<glyph glyph-name="trash" unicode="&#xe80a;" d="M402 443h58v-276h-60v276h2z m121 0h60v-276h-61v276z m275 182h-185v18 32 40h-243v-43-30-19h-183v-61h61v-550h9 55 366 52 8v550h64v61h-4z m-366 32h123v-30h-123v30z m243-584h-367v490h367c0 0 0-490 0-490z" horiz-adv-x="1000" />

<glyph glyph-name="play" unicode="&#xe80b;" d="M772 333l-741-412q-13-7-22-2t-9 20v822q0 14 9 20t22-2l741-412q13-7 13-17t-13-17z" horiz-adv-x="785.7" />

<glyph glyph-name="drag" unicode="&#xe80c;" d="M488 581a17 17 0 0 0 26 0l61-61a17 17 0 0 0 1-23 17 17 0 0 0-23 0l-37 37v-169h169l-37 37a17 17 0 0 0 0 22 16 16 0 0 0 23 0l63-63a20 20 0 0 0-1-25l-62-61a16 16 0 1 0-23 22l37 37h-168v-168l36 36a16 16 0 0 0 23 1 17 17 0 0 0-1-23l-61-61a18 18 0 0 0-27 0l-62 61a16 16 0 0 0-1 21 16 16 0 0 0 24 2l36-37v168h-168l37-37a16 16 0 0 0 0-23 17 17 0 0 0-23 1l-60 60a18 18 0 0 0-1 28l61 61a16 16 0 1 0 23-22l-37-37h169v169l-37-37a16 16 0 0 0-24 2 16 16 0 0 0 2 21l62 61z" horiz-adv-x="1000" />

<glyph glyph-name="info" unicode="&#xe80d;" d="M500 850a500 500 0 1 1 500-500 500 500 0 0 1-500 500z m0-925a425 425 0 1 0 425 425 425 425 0 0 0-425-425z m54 242a469 469 0 0 0-37-35l-3-3c-23-19-35-21-39-21s-5 0-5 0a14 14 0 0 0-2 7 122 122 0 0 0 6 25l101 278v0a9 9 0 0 1-4 8c-4 4-11 2-30 0l-43-7-21-3-15 0-14 0-44-5h-7v-24h8a241 241 0 0 0 50-4 10 10 0 0 0 8-11 8 8 0 0 0 0-4l0 0v0a13 13 0 0 0 0-4l-78-207c-2-8-4-14-6-19l0-6a83 83 0 0 1 0-20 49 49 0 0 1 16-37 56 56 0 0 1 41-17 134 134 0 0 1 79 30 473 473 0 0 1 62 59l10 8-25 18z m8 433a64 64 0 0 1-44-15 45 45 0 0 1 0-72 68 68 0 0 1 44-15 73 73 0 0 1 46 15 45 45 0 0 1 0 72 69 69 0 0 1-46 15z" horiz-adv-x="1000" />

<glyph glyph-name="left-open-big" unicode="&#xe80e;" d="M452-20q26-26 0-48-26-26-48 0l-392 394q-24 24 0 50l392 394q22 26 48 0 26-22 0-48l-358-372z" horiz-adv-x="465" />

<glyph glyph-name="right-open-big" unicode="&#xe80f;" d="M13-20l358 370-358 372q-26 26 0 48 26 26 48 0l392-394q24-26 0-50l-392-394q-22-26-48 0-26 22 0 48z" horiz-adv-x="465" />

<glyph glyph-name="flothemes" unicode="&#xe81c;" d="M359 850a360 360 0 0 0 361-362 358 358 0 0 0-361-359 357 357 0 0 0-359 359 359 359 0 0 0 359 362z m0-591a231 231 0 0 1 231 229 232 232 0 0 1-231 232 232 232 0 0 1-229-232 230 230 0 0 1 229-229z m-226-347a18 18 0 0 0-2 24s72 99 150 99c43 0 72-22 101-41 20-13 45-32 72-32 34 0 61 32 74 52a18 18 0 0 0 30 2l42-44a18 18 0 0 0 2-24s-71-98-148-98c-48 0-79 23-110 43a116 116 0 0 1-65 28c-34 0-61-31-74-51a18 18 0 0 0-28-2c-15 16-27 28-44 44z" horiz-adv-x="720" />

<glyph glyph-name="laptop" unicode="&#xe81d;" d="M1462 850h-1380v-894h1380v894z m-48-846h-1284v798h1284v-798z m129-106v-48h-1543v48h1543z" horiz-adv-x="1543" />

<glyph glyph-name="tablet" unicode="&#xe81e;" d="M749-150h-749v1000h749v-1000z m-699 50h649v900h-649v-900z" horiz-adv-x="749" />

<glyph glyph-name="phone" unicode="&#xe81f;" d="M525-89h-491v878h491v-878z m-441 51h391v776h-391v-776z" horiz-adv-x="559" />

<glyph glyph-name="refresh" unicode="&#xe820;" d="M748 539l82 74c0 0 0 7-8 7-74 97-192 156-326 156-229 0-422-185-429-422 0-237 185-430 422-430 111 0 222 44 304 126 7 7 7 7 14 15 15-22 37-37 60-52-8-7-8-15-15-15-193-192-511-192-704 0s-192 511 0 704c96 96 222 148 356 148 148 0 296-67 392-185l0 0 89 81v-207h-237z" horiz-adv-x="978" />

<glyph glyph-name="angle-left" unicode="&#xf104;" d="M350 546q0-7-6-12l-219-220 219-219q6-6 6-13t-6-13l-28-28q-5-5-12-5t-13 5l-260 261q-6 5-6 12t6 13l260 260q5 6 13 6t12-6l28-28q6-5 6-13z" horiz-adv-x="357.1" />

<glyph glyph-name="angle-right" unicode="&#xf105;" d="M332 314q0-7-5-12l-261-261q-5-5-12-5t-13 5l-28 28q-6 6-6 13t6 13l219 219-219 220q-6 5-6 12t6 13l28 28q5 6 13 6t12-6l261-260q5-5 5-13z" horiz-adv-x="357.1" />

<glyph glyph-name="clone" unicode="&#xf24d;" d="M929-61v607q0 8-6 13t-12 5h-607q-8 0-13-5t-5-13v-607q0-7 5-12t13-6h607q7 0 12 6t6 12z m71 607v-607q0-37-26-63t-63-26h-607q-37 0-63 26t-27 63v607q0 37 27 64t63 26h607q37 0 63-26t26-64z m-214 215v-90h-72v90q0 7-5 12t-13 6h-607q-7 0-12-6t-6-12v-607q0-8 6-13t12-5h90v-72h-90q-36 0-63 27t-26 63v607q0 37 26 63t63 26h607q37 0 64-26t26-63z" horiz-adv-x="1000" />
</font>
</defs>
</svg>
