<?xml version="1.0" standalone="no"?>
<!DOCTYPE svg PUBLIC "-//W3C//DTD SVG 1.1//EN" "http://www.w3.org/Graphics/SVG/1.1/DTD/svg11.dtd" >
<svg xmlns="http://www.w3.org/2000/svg">
<metadata>
Created by FontPrep 20130207 at Thu Aug 11 10:13:00 2016
 By Alex Leu
Copyright (c) 1999 by Carter &#38; Cone Type, Inc. All rights reserved.
</metadata>
<defs>
<font id="980fda041314d32db2310860933d7fbd" horiz-adv-x='1024' >
  <font-face 
    font-family="MillerBanner-Light"
    font-weight="300"
    font-stretch="normal"
    units-per-em="2048"
    panose-1="2 0 5 3 9 0 0 2 0 3"
    ascent="1565"
    descent="-483"
    x-height="924"
    cap-height="1399"
    bbox="-282 -467 2333.01 1929"
    underline-thickness="40"
    underline-position="-231"
    unicode-range="U+0020-FB04"
  />
<missing-glyph horiz-adv-x="491" 
 />
    <glyph glyph-name="f_f" unicode="ff" horiz-adv-x="1196" 
d="M362 924h453v61q0 117 31 225q-39 0 -62 22t-22 67t24 72t25 32q-4 35 -40 67t-118 31q-109 0 -199 -116t-92 -349v-112zM74 0v8q66 4 90 12q55 18 55 95v780h-211v29h211v55q0 240 148 405q45 52 132 92t169 40q207 0 262 -136q47 74 134 112t170 38t127 -49t44 -115
q0 -30 -26 -58q-25 -28 -65 -28t-66 27t-26 65t13 109q-18 29 -57 28q-102 0 -159 -111t-61 -474h259v-29h-259v-770q0 -72 50 -92t137 -25v-8h-465v8q47 2 80 15q55 18 55 92v780h-453v-770q0 -72 50 -92t135 -25v-8h-473z" />
    <glyph glyph-name="f_i" unicode="fi" horiz-adv-x="1138" 
d="M760 1276q0 86 41 127q-2 23 -11 45q-10 22 -46 46t-93 24q-119 0 -204 -121t-85 -350v-123h363l211 16l10 -10v-803q0 -74 55 -94q57 -23 91 -25v-8h-433v8q61 4 86 12q59 18 60 93v680q-6 68 -29 102h-414v-770q0 -72 50 -92t135 -25v-8h-473v8q53 2 80 10q66 18 65 95
v782h-211v29h211v65q0 244 150 406q123 135 295 135q139 0 217 -62t77 -155q0 -41 -24 -79t-68 -38q-42 0 -74 23t-32 57z" />
    <glyph glyph-name="f_l" unicode="fl" horiz-adv-x="1144" 
d="M950 127q0 -110 146 -119v-8h-434v8q66 4 90 12q55 18 55 95v1280q-86 119 -186 118q-125 0 -187 -102t-69 -340q-2 -31 -3 -147h256v-29h-256v-770q0 -74 54 -94q45 -18 131 -23v-8h-473v8q66 4 90 12q55 18 55 95v780h-211v29h211v63q0 274 137 424q111 119 301 119
q90 0 168 -39l115 37l10 -8v-1393z" />
    <glyph glyph-name="f_f_i" unicode="ffi" horiz-adv-x="1736" 
d="M360 924h457v57q0 137 37 229q-41 0 -67 22q-45 38 -15 111q10 25 24 42q13 17 15 22q-4 31 -44 63t-114 31q-109 0 -201 -116t-92 -349v-112zM934 1358q130 172 350 172q117 0 195 -62t77 -155q0 -41 -24 -79t-68 -38q-42 0 -74 23t-32 57t8 65q8 30 20 49t13 21
q-2 21 -11 41q-10 20 -46 42t-93 22q-119 0 -203 -119t-85 -350v-123h360l213 16l10 -10v-803q0 -74 55 -94q57 -23 91 -25v-8h-435v8q61 4 86 12q59 18 60 93v675q0 61 -29 107h-411v-770q0 -72 50 -92t134 -25v-8h-473v8q59 4 90 15q55 18 55 92v780h-455v-770
q0 -72 56 -92q49 -20 133 -25v-8h-477v8q59 4 90 15q55 18 55 92v780h-211v29h211v55q0 240 148 405q45 52 132 92t169 40q201 0 266 -158z" />
    <glyph glyph-name="f_f_l" unicode="ffl" horiz-adv-x="1738" 
d="M360 924h457v63q0 129 29 223q-84 4 -84 84q0 58 34 87q13 13 15 22q-10 39 -49 69t-103 29q-115 -1 -203 -109t-96 -331v-137zM74 0v8q66 4 90 12q55 18 55 95v780h-211v29h211v53q0 248 148 405q123 134 309 134t252 -144q49 74 139 116t182 42t170 -39l115 37l10 -8
v-1393q0 -72 55 -96q43 -20 91 -23v-8h-435v8q66 4 91 12q55 18 55 95v1280q-45 63 -86 91t-96 27q-125 0 -187 -102t-69 -340q-2 -31 -2 -147h256v-29h-256v-770q0 -74 46 -91t138 -24v-10h-473v8q66 4 90 12q55 18 55 95v780h-455v-770q0 -74 54 -94q45 -18 131 -23v-8
h-473z" />
    <glyph glyph-name="f_j" unicode="fj" horiz-adv-x="1118" 
d="M760 1276q0 86 41 127q-2 23 -11 45q-10 22 -46 46t-93 24q-119 0 -204 -121t-85 -350v-123h363l211 16l10 -8v-852q0 -293 -129 -424q-65 -66 -117 -92t-126 -25q-74 0 -129 37q-54 37 -54 98q0 35 31 65t74 30q42 0 72 -23t30 -68q0 -14 -10 -50t-6 -54q20 -8 51 -8
q96 0 134 96t38 344v787q0 57 -29 102h-416v-770q0 -72 50 -92t137 -25v-8h-473v8q53 2 80 10q66 18 65 95v782h-211v29h211v65q0 244 150 406q123 135 295 135q139 0 217 -62t77 -155q0 -41 -24 -79t-68 -38q-42 0 -74 23t-32 57z" />
    <glyph glyph-name="f_t" unicode="ft" horiz-adv-x="1288" 
d="M807 895h-445v-770q0 -74 54 -94q45 -18 131 -23v-8h-473v8q66 4 90 12q55 18 55 95v780h-211v29h211v63q0 274 137 424q111 119 271 119q92 0 136 -47t44 -113q0 -28 -26 -56q-25 -28 -65 -28t-66 27t-26 67t17 101q-18 29 -61 28q-100 0 -154 -107q-60 -123 -64 -478
h449v317h137v-317h281v-29h-279v-623q0 -110 31 -164t103 -54t119 50q48 51 63 140h12q-37 -260 -242 -260q-229 0 -229 276v635z" />
    <glyph glyph-name=".notdef" horiz-adv-x="491" 
 />
    <glyph glyph-name=".null" horiz-adv-x="0" 
 />
    <glyph glyph-name="nonmarkingreturn" horiz-adv-x="681" 
 />
    <glyph glyph-name="space" unicode=" " horiz-adv-x="491" 
 />
    <glyph glyph-name="exclam" unicode="!" horiz-adv-x="655" 
d="M326 -14q-49 0 -83 34t-34 82q0 49 34 84t83 35t84 -35q34 -35 34 -84t-34 -83q-35 -33 -84 -33zM221 1325q0 39 30 76t77 37q46 0 76 -37t30 -76t-44 -355t-58 -546h-13q-10 258 -54 560t-44 341z" />
    <glyph glyph-name="quotedbl" unicode="&#x22;" horiz-adv-x="753" 
d="M573 1513q90 0 91 -100q0 -16 -25 -106t-59 -293h-11q-26 181 -56 281q-29 100 -30 118q0 100 90 100zM90 1413q0 100 90 100t90 -100q0 -16 -27 -117t-57 -282h-10q-29 200 -57 290q-29 91 -29 109z" />
    <glyph glyph-name="numbersign" unicode="#" horiz-adv-x="1044" 
d="M391 494l262 69v262l-262 -69v-262zM375 -14v372l-234 -57v131l234 57v263l-234 -58v129l234 58v403h16v-397l262 67v330h17v-323l233 57v-131l-233 -58v-262l233 58v-129l-233 -58v-452h-17v446l-262 -67v-379h-16z" />
    <glyph glyph-name="dollar" unicode="$" horiz-adv-x="1222" 
d="M309 984q0 -179 213 -232v489q-106 -20 -160 -90q-54 -71 -53 -167zM745 16q115 29 166 107t52 162q0 195 -218 254v-523zM640 1253q-48 0 -101 -8v-495q49 -11 190 -29v526q-41 6 -89 6zM618 2q54 0 111 12v529q-61 14 -190 26v-563q25 -4 79 -4zM522 -291v283
q-147 20 -251 100q-103 80 -103 182q0 72 32 116t77 44q88 0 88 -100q0 -55 -47 -98q-22 -20 -31 -39q1 -78 71 -126t164 -63v563q-330 55 -329 316q-1 123 83 233t246 140v200h17v-198q53 8 101 8t89 -6v196h16v-198q127 -24 205 -88t78 -143t-29 -115t-65 -36t-60 26
q-25 24 -24 65q0 41 38 85t46 70q-12 39 -64 72t-125 47v-526q147 -23 238 -95q90 -73 90 -239q0 -125 -83 -237t-245 -148v-291h-16v289q-61 -12 -113 -12t-77 4v-281h-17z" />
    <glyph glyph-name="percent" unicode="%" horiz-adv-x="1716" 
d="M432 -197l-29 17l879 1585l31 -16zM1446 286q0 130 -49 218t-138 88t-137 -89t-47 -217t49 -215t131 -87t137 86t54 216zM1252 -29q-124 0 -214 82q-90 83 -90 223t98 235t218 95t216 -81t95 -227q0 -146 -99 -237q-100 -90 -224 -90zM452 1255q-88 0 -136 -87t-48 -217
t48 -216t133 -86q86 0 138 83t52 217t-49 220t-138 86zM446 635q-123 0 -214 82t-91 223q-1 142 97 236t218 94t216 -82t96 -244q0 -127 -100 -218t-222 -91z" />
    <glyph glyph-name="ampersand" unicode="&#x26;" horiz-adv-x="1484" 
d="M776 1155q0 115 -42 187t-123 71q-81 0 -126 -48t-56 -99t-11 -109q0 -143 145 -336q213 113 213 334zM514 74q190 0 326 133q-233 285 -402 530q-195 -115 -194 -358q0 -131 72 -218t198 -87zM449 -33q-160 0 -268 92t-107 258q0 129 84 223t268 210q-86 133 -121 212
t-35 152q0 133 102 224q102 92 229 92q128 0 194 -80t65 -189q0 -184 -289 -354q137 -205 367 -485q92 120 136 248t44 200q0 61 -205 104v9h592v-9q-205 -20 -278 -100q-9 -8 -105 -191t-170 -278q168 -199 211 -225q98 -61 256 -70v-10h-418q-31 43 -151 193
q-116 -119 -204 -173t-197 -53z" />
    <glyph glyph-name="quotesingle" unicode="'" horiz-adv-x="360" 
d="M90 1413q0 100 90 100t90 -100q0 -16 -27 -117t-57 -282h-10q-29 200 -57 290q-29 91 -29 109z" />
    <glyph glyph-name="parenleft" unicode="(" horiz-adv-x="727" 
d="M188 1057q96 185 268 328q69 58 165 126l14 -8q-338 -261 -428 -594q-39 -141 -39 -305q0 -565 467 -905l-14 -8q-119 77 -204 153t-164 185q-161 222 -161 533q0 310 96 495z" />
    <glyph glyph-name="parenright" unicode=")" horiz-adv-x="727" 
d="M518 598q0 565 -467 905l15 8q120 -77 204 -153t163 -184q161 -221 161 -576q0 -475 -364 -781q-68 -58 -164 -126l-15 8q192 148 329 360q138 212 138 539z" />
    <glyph glyph-name="asterisk" unicode="*" horiz-adv-x="778" 
d="M389 809q-43 0 -43 43q0 14 16 116t21 140q-43 -29 -114 -87t-83 -67q-38 -25 -62 7q-33 45 72 87q34 13 88 32t97 38q-43 18 -128 49t-119 54t-9 57q27 33 63 6q18 -12 85 -70t110 -86l-37 256q0 43 44 43t44 -43q0 -15 -17 -116q-17 -100 -22 -140q43 29 111 87t88 71
q37 25 56 -7t-9 -58q-21 -16 -111 -49q-89 -33 -133 -54q39 -16 127 -48t109 -48q41 -26 19 -62t-60 -10q-14 10 -84 68t-113 90l39 -256q0 -18 -12 -31q-13 -12 -33 -12z" />
    <glyph glyph-name="plus" unicode="+" horiz-adv-x="1138" 
d="M541 39v463h-465v59h465v465h57v-465h465v-59h-465v-463h-57z" />
    <glyph glyph-name="comma" unicode="," horiz-adv-x="466" 
d="M217 8q-59 0 -88 32t-29 75t32 75t81 33q150 0 149 -190q0 -150 -149 -275q-49 -41 -63 -50t-52 -34l-4 9q82 51 132 138t57 187h-66z" />
    <glyph glyph-name="hyphen" unicode="-" horiz-adv-x="811" 
d="M72 463v110h667v-110h-667z" />
    <glyph glyph-name="hyphen" unicode="&#xad;" horiz-adv-x="811" 
d="M72 463v110h667v-110h-667z" />
    <glyph glyph-name="period" unicode="." horiz-adv-x="466" 
d="M236 -14q-49 0 -83 34t-34 82q0 49 34 84t83 35q50 0 84 -35t34 -84q0 -48 -34 -82t-84 -34z" />
    <glyph glyph-name="slash" unicode="/" horiz-adv-x="823" 
d="M115 -424l-49 14l641 1950l49 -14z" />
    <glyph glyph-name="zero" unicode="0" horiz-adv-x="1214" 
d="M279 618q1 -280 79 -456t236 -176t250 178t92 459q0 374 -135 540q-76 92 -191 92q-147 0 -239 -179t-92 -458zM1108 630q0 -284 -150 -470t-371 -187q-220 1 -350 179q-131 178 -131 460t152 469t370 187t348 -177q132 -177 132 -461z" />
    <glyph glyph-name="one" unicode="1" horiz-adv-x="841" 
d="M752 0h-582v8q135 8 160 17q61 20 61 96v1020q-33 -10 -92 -11q-111 0 -201 87l4 6q72 -39 179 -39q150 0 270 86h10q-20 -72 -20 -301v-838q0 -72 59 -98q39 -18 152 -25v-8z" />
    <glyph glyph-name="two" unicode="2" horiz-adv-x="1140" 
d="M334 680q117 0 205 117l6 -4q-102 -156 -269 -156q-68 0 -120 42t-52 132q0 91 62 195t186 183q126 79 276 79t248 -88t99 -224q1 -206 -143 -362t-508 -395l-91 -68h558q67 0 111 52t85 141l8 -5l-112 -319h-807l-6 10q352 293 514 469q236 250 235 512q0 119 -62 190
t-161 70q-166 0 -266 -143q-100 -144 -100 -286t104 -142z" />
    <glyph glyph-name="three" unicode="3" horiz-adv-x="1128" 
d="M430 -53q-139 0 -253 77t-114 203q0 70 35 108t78 38t71 -24q27 -23 27 -61t-38 -62t-39 -66q0 -80 60 -140q59 -60 197 -61q138 0 254 132t115 325q0 227 -176 227q-48 1 -79 -23q-32 -24 -41 -30t-41 -37t-33 -33l-21 23q197 139 258 205q121 127 121 274q0 98 -49 165
q-50 67 -156 67t-204 -93q-98 -92 -99 -223q0 -55 26 -87t70 -32q82 0 142 72l6 -6q-37 -43 -95 -81t-125 -38t-106 41t-39 100q0 129 140 246t304 117q165 0 255 -76t90 -181t-83 -189t-224 -126l-48 -36q96 14 119 14q98 0 176 -66t78 -211q-1 -201 -161 -327t-398 -125z
" />
    <glyph glyph-name="four" unicode="4" horiz-adv-x="1110" 
d="M582 514v576l-467 -576h467zM393 0v8q119 6 137 12q51 16 52 93v323h-535v21l676 831h2v-774q176 0 200 16t44 68t22 100h8v-454h-8q-2 55 -20 109q-17 55 -39 65t-60 15t-87 4q-50 -1 -60 -1v-309q0 -74 53 -98q31 -14 137 -21v-8h-522z" />
    <glyph glyph-name="five" unicode="5" 
d="M510 784q160 0 274 -105t115 -287q-1 -182 -145 -301q-144 -120 -315 -120t-267 72t-96 166q0 45 19 73t39 34q63 18 98 -15q24 -20 24 -49q0 -28 -14 -58t-15 -51q-1 -67 53 -113t147 -46q177 0 248 175q62 153 62 339q0 124 -61 196q-62 72 -164 72t-189 -51t-118 -129
l-17 4l154 674h16q90 -82 278 -82t286 104l6 -4q-41 -86 -124 -143q-147 -101 -335 -101q-94 0 -156 13l-90 -394q127 127 287 127z" />
    <glyph glyph-name="six" unicode="6" horiz-adv-x="1112" 
d="M539 -14q220 0 274 317q12 72 12 146q0 170 -70 274q-71 104 -191 104q-120 1 -205 -111t-85 -300t71 -310q71 -120 194 -120zM541 -27q-199 0 -309 164t-109 410q0 358 217 622t471 265q125 0 182 -60t58 -129q0 -102 -82 -102q-37 0 -55 21q-17 22 -27 72
q-21 107 -73 144q-32 23 -91 23q-139 0 -267 -206t-167 -515l8 -4q143 182 330 182q153 0 261 -120t108 -287t-106 -315q-52 -73 -143 -119t-206 -46z" />
    <glyph glyph-name="seven" unicode="7" horiz-adv-x="1019" 
d="M428 -244q-88 0 -88 121t256 615q100 193 356 595h-639q-158 0 -217 -258l-12 2l117 502h6l29 -114h813v-11q-288 -425 -438 -875q-64 -196 -79 -431q-8 -146 -104 -146z" />
    <glyph glyph-name="eight" unicode="8" horiz-adv-x="1105" 
d="M827 1008q-1 108 -65 184t-180 76t-185 -81q-67 -81 -67 -192t84 -187t237 -110q176 74 176 310zM252 269q0 -111 66 -197t196 -86q131 0 214 86t83 223q0 242 -360 321q-83 -33 -141 -134t-58 -213zM516 -27q-170 0 -278 89t-107 217q0 229 303 344v6q-120 39 -190 122
t-70 177q0 150 125 251t283 101t252 -81q96 -81 96 -212q0 -88 -70 -167t-188 -128v-6q121 -43 212 -125t91 -202q0 -119 -74 -209q-73 -90 -177 -134t-208 -43z" />
    <glyph glyph-name="nine" unicode="9" horiz-adv-x="1112" 
d="M551 416q100 0 195 104q96 104 96 293t-81 315t-214 125q-93 0 -153 -62q-110 -112 -107 -341q0 -434 264 -434zM313 -207q-127 1 -199 63t-73 136q0 109 88 108q39 0 55 -30t26 -78q10 -49 28 -85q48 -93 135 -91q186 0 312 229t146 530q0 11 -6 11t-12 -8
q-135 -197 -334 -197q-143 0 -251 113t-108 300t119 330q117 144 311 144t316 -146t121 -456q0 -223 -76 -418q-75 -195 -233 -325t-365 -130z" />
    <glyph glyph-name="colon" unicode=":" horiz-adv-x="555" 
d="M276 686q-48 0 -82 34t-34 83t34 84t82 35t84 -35q35 -35 35 -84t-35 -83t-84 -34zM276 -14q-48 0 -82 34t-34 82q0 49 34 84t82 35t84 -35q35 -35 35 -84q0 -48 -35 -82t-84 -34z" />
    <glyph glyph-name="semicolon" unicode=";" horiz-adv-x="555" 
d="M276 686q-48 0 -82 34t-34 83t34 84t82 35t84 -35q35 -35 35 -84t-35 -83t-84 -34zM268 8q-59 0 -88 32q-28 32 -28 75t32 75t80 33q150 0 150 -190q0 -149 -150 -275q-49 -41 -63 -50t-51 -34l-5 9q82 51 133 138q50 87 56 187h-66z" />
    <glyph glyph-name="less" unicode="&#x3c;" horiz-adv-x="1138" 
d="M1014 72l-905 440v41l905 440v-59l-830 -402l830 -401v-59z" />
    <glyph glyph-name="equal" unicode="=" horiz-adv-x="1138" 
d="M117 684v55h905v-55h-905zM117 326v55h905v-55h-905z" />
    <glyph glyph-name="greater" unicode="&#x3e;" horiz-adv-x="1138" 
d="M125 72v59l829 401l-829 402v59l905 -440v-41z" />
    <glyph glyph-name="question" unicode="?" horiz-adv-x="937" 
d="M358 -14q-49 0 -84 34t-34 82q0 49 34 84q35 35 84 35t84 -35t35 -84q0 -48 -35 -82t-84 -34zM348 340v385q238 35 302 156q30 57 30 139q0 197 -73 299t-189 102q-41 0 -81 -14t-54 -39q16 -109 6 -156q-23 -61 -92 -61q-39 0 -61 27t-21 67q0 74 80 130t223 57
q209 0 315 -115q107 -115 107 -289t-124 -291t-337 -139l-17 -258h-14z" />
    <glyph glyph-name="at" unicode="@" horiz-adv-x="2011" 
d="M901 109q84 0 142 52t112 152l129 387q-23 150 -168 150q-84 0 -163 -95t-123 -223t-44 -233q0 -190 115 -190zM178 392q0 222 124 446q124 223 353 364t508 141q162 0 292 -55t210 -149q166 -195 166 -449t-159 -438t-355 -184q-76 0 -126 48t-48 136l-6 2
q-41 -74 -111 -128t-142 -54t-140 61q-66 61 -66 199t115 332q53 88 143 148t192 60q59 0 106 -35q46 -36 54 -100h6l47 123h99l-189 -538q-23 -59 -22 -113q0 -127 100 -127q172 0 324 174q151 174 151 438t-175 440t-470 177q-150 0 -297 -65q-147 -64 -267 -180
t-194 -296t-73 -393q0 -356 207 -563t516 -207t543 167t337 470l11 -4q-90 -308 -344 -494t-569 -186q-316 0 -572 198q-125 96 -202 254t-77 380z" />
    <glyph glyph-name="A" unicode="A" horiz-adv-x="1380" 
d="M375 547h516l-248 655zM485 0h-538v8q188 10 264 199q324 780 498 1214h18q117 -295 294 -751t206 -525q53 -128 207 -137v-8h-594v8q76 4 148 24t73 52q0 33 -8 51l-154 387h-532q-133 -328 -131 -403q0 -49 82 -78t167 -33v-8z" />
    <glyph glyph-name="B" unicode="B" horiz-adv-x="1320" 
d="M479 748h162q162 0 235 97t72 249q0 152 -82 222t-175 70t-212 -4v-634zM675 16q169 0 250 95q91 110 91 305q0 129 -83 223t-243 94q-121 0 -211 -4v-567q11 -84 57 -115t139 -31zM102 0v8q92 4 152 28t59 95v1124q0 76 -63 103q-72 29 -135 33v8h680q181 0 288 -116
q63 -69 64 -169q0 -158 -98 -236t-295 -128v-7q155 -4 297 -81q76 -41 123 -118t47 -171t-47 -169q-77 -123 -248 -181q-66 -23 -113 -23h-711z" />
    <glyph glyph-name="C" unicode="C" horiz-adv-x="1288" 
d="M737 -31q-301 0 -479 195t-178 511t203 531t501 215q82 0 186 -37t171 -96l65 133h13l8 -503h-10q-84 240 -199 362t-295 123q-180 0 -315 -184t-136 -529q0 -293 151 -482t365 -190q180 0 297 98t175 249l20 -11q-164 -385 -543 -385z" />
    <glyph glyph-name="D" unicode="D" horiz-adv-x="1568" 
d="M719 14q283 0 426 184t143 494q0 309 -170 502t-448 192q-117 0 -191 -6v-1194q15 -96 65 -134t175 -38zM98 0v8q104 0 152 19q63 25 63 100v1128q0 78 -63 105t-144 31v8h635q195 0 378 -89q103 -50 183 -127t133 -205q52 -128 52 -294t-69 -302q-68 -136 -182 -217
q-231 -165 -536 -165h-602z" />
    <glyph glyph-name="E" unicode="E" horiz-adv-x="1327" 
d="M88 0v8q123 6 162 23q63 25 63 100v1124q0 76 -63 101q-72 31 -162 35v8h1081v-309h-10q-19 80 -81 178t-125 106t-191 8h-283v-649h223q52 1 92 15t47 21t31 32q39 39 58 200h10v-563h-10q-4 49 -23 121t-37 91l-30 30t-49 24t-89 13h-223v-514q0 -123 44 -155t161 -32
h173q55 0 73 2t74 7q77 7 112 42t82 139t72 177h10l-27 -383h-1165z" />
    <glyph glyph-name="F" unicode="F" horiz-adv-x="1214" 
d="M88 0v8q123 6 162 23q63 25 63 98v1126q0 76 -63 101q-72 31 -162 35v8h1092v-326h-11q-16 77 -85 185t-122 116t-186 8h-297v-653h250q98 0 164 70q45 49 59 198h11l-2 -569h-11q-4 49 -21 120t-34 93q-53 72 -166 72h-250v-576q-1 -75 59 -99t162 -30v-8h-612z" />
    <glyph glyph-name="G" unicode="G" horiz-adv-x="1486" 
d="M708 -31q-124 0 -232 47q-244 105 -345 352q-55 134 -55 294q0 307 216 533t494 226q246 0 433 -135l75 135h9l12 -489h-10q-59 193 -199 334t-334 141q-221 0 -360 -199q-140 -199 -140 -524q0 -326 134 -510t362 -184q190 0 285 96q94 96 94 219v135q0 109 -68 131
q-59 20 -227 31v10h661v-10q-119 -12 -153 -29q-61 -31 -62 -108v-512l-8 -2l-116 137q-134 -68 -238 -94t-228 -25z" />
    <glyph glyph-name="H" unicode="H" horiz-adv-x="1716" 
d="M106 0v8q111 6 144 19q63 25 63 100v1128q0 74 -63 101q-76 31 -144 35v8h584v-8q-88 -4 -147 -25q-63 -20 -64 -100v-523h758v512q-1 74 -69 103t-142 33v8h584v-8q-84 -4 -144 -25q-63 -20 -63 -100v-1129q0 -70 63 -100q47 -23 144 -29v-8h-584v8q117 6 148 19
q63 25 63 100v592h-758v-582q0 -74 64 -100q57 -25 147 -29v-8h-584z" />
    <glyph glyph-name="I" unicode="I" horiz-adv-x="800" 
d="M104 0v8q119 6 150 19q63 25 63 98v1132q0 74 -63 99q-80 31 -150 35v8h592v-8q-90 -4 -149 -25q-63 -20 -64 -98v-1133q1 -73 61 -97t152 -30v-8h-592z" />
    <glyph glyph-name="J" unicode="J" horiz-adv-x="944" 
d="M664 391q0 -117 -97 -261q-47 -70 -133 -116q-86 -47 -208 -47q-122 1 -178 57t-56 110t35 93t87 39t83 -33t30 -83q0 -100 -92 -146v-6q25 -12 76 -12q99 0 179 50q51 30 79 113q29 83 29 150v956q0 68 -60 99t-176 37v8h625v-8q-103 -5 -163 -25t-60 -100v-875z" />
    <glyph glyph-name="K" unicode="K" horiz-adv-x="1441" 
d="M799 8q246 0 248 84q1 52 -219 284t-324 324h-25v-563q0 -74 64 -100q18 -9 74 -19t83 -10v-8h-594v8q111 6 144 19q63 25 63 100v1128q-1 74 -67 103t-140 33v8h584v-8q-88 -4 -147 -25q-63 -20 -64 -100v-551h17q225 178 395 352t170 248t-221 76v8h573v-8
q-199 0 -283 -97q-254 -293 -503 -497q414 -412 592 -627q80 -98 165 -133q53 -25 144 -29v-8h-729v8z" />
    <glyph glyph-name="L" unicode="L" horiz-adv-x="1251" 
d="M109 0v8q102 6 141 21q63 25 63 102v1118q0 74 -63 103q-80 35 -141 39v8h583v-8q-76 -5 -144 -27t-69 -104v-1055q0 -131 38 -160t208 -29q289 0 338 56q39 44 107 158t79 157h8l-32 -387h-1116z" />
    <glyph glyph-name="M" unicode="M" horiz-adv-x="1921" 
d="M43 0v8q145 16 190 49q68 47 68 285v825q1 115 -65 167t-183 57v8h381l543 -1135l409 922q51 117 60 213h377v-8q-95 -5 -155 -25t-60 -100v-1129q0 -70 63 -100q45 -23 154 -29v-8h-627v8q147 8 180 25q66 35 66 104v1125l-549 -1239h-8q-45 137 -113 284l-450 944v-899
q0 -229 69 -286q23 -18 102 -36t117 -22v-8h-569z" />
    <glyph glyph-name="N" unicode="N" horiz-adv-x="1576" 
d="M324 354q0 -221 73 -280q25 -18 105 -41t114 -25v-8h-573v8q29 4 97 24t87 29q74 41 74 283v799q0 109 -65 162q-35 29 -105 55t-123 33v6h373l936 -1151v809q0 233 -70 274q-29 17 -103 37t-116 23v8h565v-8q-27 -1 -95 -19t-87 -31q-72 -43 -72 -272v-1087h-14
l-1001 1232v-860z" />
    <glyph glyph-name="O" unicode="O" horiz-adv-x="1556" 
d="M779 -14q245 0 374 198t129 524q0 324 -136 514t-368 191q-232 -1 -367 -195q-137 -194 -137 -516t130 -520q130 -196 375 -196zM782 -31q-286 0 -493 201q-207 200 -207 524t202 530t494 206t510 -216q86 -86 136 -223t51 -282q0 -334 -203 -537q-204 -203 -490 -203z
" />
    <glyph glyph-name="P" unicode="P" horiz-adv-x="1226" 
d="M479 686h125q90 0 159 29t103 67q84 97 84 238q0 365 -307 364h-164v-698zM109 0v8q102 6 141 21q63 25 63 102v1131q-1 86 -67 105t-150 24v8h658q156 0 278 -91t121 -237q0 -193 -144 -296t-345 -103h-185v-543q0 -78 64 -102q39 -14 166 -19v-8h-600z" />
    <glyph glyph-name="Q" unicode="Q" horiz-adv-x="1564" 
d="M770 -10q100 0 201 39q-39 365 -264 364q-47 0 -103 -35q-114 -71 -164 -221q76 -83 152 -115q78 -32 178 -32zM778 1413q-231 -1 -367 -197q-137 -196 -137 -539t154 -525q47 142 145 208t213 66t214 -94t128 -217q154 166 154 584t-213 609q-117 105 -291 105z
M1325 -248q-67 0 -133 18t-134 82q-68 62 -83 162q-100 -41 -205 -41q-288 0 -488 203t-200 508q0 346 207 546t495 200t506 -218q86 -86 135 -222t49 -304t-92 -326q-92 -160 -249 -260q31 -147 123 -209q94 -61 188 -61t163 53t111 119l11 -10q-51 -82 -161 -161t-243 -79
z" />
    <glyph glyph-name="R" unicode="R" horiz-adv-x="1445" 
d="M479 725h164q147 0 247 83q99 83 99 249t-83 247t-206 80h-221v-659zM1438 264q0 -150 -49 -218t-163 -69q-114 0 -170 85t-83 266q-43 273 -159 345q-58 36 -140 36h-195v-580q0 -78 64 -102q33 -12 153 -19v-8h-587v8q102 6 141 21q63 25 63 102v1133q-1 84 -67 103
t-137 24v8h690q141 0 267 -82t126 -234q0 -153 -130 -243t-302 -117v-6q137 -7 234 -61t126 -156q14 -56 36 -162t36 -158q33 -117 113 -117q49 -1 84 47t34 154v43h15v-43z" />
    <glyph glyph-name="S" unicode="S" horiz-adv-x="1069" 
d="M566 -25q-184 0 -367 129l-78 -124h-6l-15 466h9q168 -453 481 -452q137 0 216 87t79 214q0 188 -205 276q-240 102 -301 131q-119 54 -177 138t-58 232t102 248q102 101 254 101q195 0 346 -125l78 125h6l10 -463h-10q-70 213 -176 329t-271 116q-106 0 -177 -74
q-70 -74 -70 -166t43 -152q43 -61 119 -101t168 -79q91 -39 132 -59q156 -74 226 -150t69 -227q1 -190 -121 -305t-306 -115z" />
    <glyph glyph-name="T" unicode="T" horiz-adv-x="1288" 
d="M330 0v8q127 6 168 23q63 25 63 102v1249h-131q-119 0 -184 -8q-59 -8 -130 -134t-91 -212h-11v371h1260v-371h-10q-23 88 -93 213t-129 133q-66 8 -184 8h-129v-1239q0 -77 65 -103t167 -32v-8h-631z" />
    <glyph glyph-name="U" unicode="U" horiz-adv-x="1579" 
d="M287 1253q0 123 -207 138v8h586v-8q-82 -4 -148 -27q-63 -20 -63 -100v-887q0 -150 98 -245t298 -95q201 0 319 92t118 256v676q0 236 -69 274q-88 49 -224 56v8h570v-8q-31 1 -96 -15t-91 -33q-68 -39 -67 -270v-692q0 -178 -139 -296q-140 -118 -376 -118t-373 108
q-136 108 -136 251v927z" />
    <glyph glyph-name="V" unicode="V" horiz-adv-x="1349" 
d="M-47 1399h584v-8q-41 5 -122 -15t-81 -57q0 -16 10 -53q35 -100 177 -467t220 -574q20 47 367 879q45 109 45 176q0 45 -82 76t-164 37v6h504v-6q-51 -2 -127 -41q-53 -28 -97 -130t-206 -489t-317 -749h-13q-109 300 -289 760t-200 518q-41 121 -209 129v8z" />
    <glyph glyph-name="W" unicode="W" horiz-adv-x="1918" 
d="M-43 1399h588v-8q-76 -3 -152 -23t-76 -53q1 -27 9 -51q201 -578 321 -981l285 794q8 29 8 65t-31 109q-31 74 -77 104t-144 36v8h584v-8q-70 -5 -138 -25t-67 -53q0 -23 8 -51t118 -329q110 -302 214 -640q207 595 253 753t46 234q0 49 -78 77t-168 34v8h514v-8
q-70 -4 -136 -45t-95 -123q-219 -657 -416 -1239h-10q-101 346 -361 1103l-391 -1103h-12q-86 286 -228 738q-141 452 -161 524q-37 136 -207 145v8z" />
    <glyph glyph-name="X" unicode="X" horiz-adv-x="1527" 
d="M-8 0v8q186 14 295 154q53 66 194 238t211 262q-372 494 -440 582t-127 120q-15 10 -61 18t-68 9v8h688v-8q-123 -8 -160 -17q-72 -18 -71 -61q0 -70 350 -537q352 436 352 535q0 29 -22 44q-52 34 -213 36v8h557v-8q-90 -6 -136 -27q-84 -37 -155 -127l-369 -477
q446 -580 459 -596q80 -94 133 -131q31 -20 129 -25v-8h-688v8q143 8 178 19q55 16 55 55q0 78 -376 565q-52 -57 -110 -133q-59 -76 -105 -133q-188 -235 -187 -285q0 -88 227 -88v-8h-540z" />
    <glyph glyph-name="Y" unicode="Y" horiz-adv-x="1200" 
d="M262 0v8q127 6 168 23q63 25 64 102v426q0 12 -48 127q-150 301 -280 533q-57 100 -123 139q-47 29 -113 33v8h598v-8q-225 -12 -225 -70q0 -33 352 -682q373 606 373 651t-84 70t-178 31v8h508v-8q-29 0 -91 -24t-120 -105q-131 -182 -346 -580q-55 -102 -55 -209v-330
q0 -77 64 -103t167 -32v-8h-631z" />
    <glyph glyph-name="Z" unicode="Z" horiz-adv-x="1232" 
d="M6 0v12l995 1370h-442q-104 0 -145 -4q-90 -16 -192 -141t-120 -205h-12l43 367h1059v-13l-995 -1370h489q78 0 169 14t122 38q68 55 131 153t98 189h13l-48 -410h-1165z" />
    <glyph glyph-name="bracketleft" unicode="[" horiz-adv-x="1110" 
d="M1012 -309v20q0 5 -10 23q-28 52 -194 53q-166 0 -362 -42q-74 -15 -243 -54l-47 -17v1815l47 -16q299 -68 413 -82q328 -41 376 20q16 17 18 27t2 44t-33 79l10 6q19 -12 35 -47t16 -68q0 -100 -64 -158q-65 -57 -198 -57q-82 0 -160 20t-124 43t-140 75q-96 52 -147 79
v-1745q51 27 146 79t141 75q127 63 272 63t210 -57t64 -158q0 -58 -59 -117l-10 7q41 35 41 90z" />
    <glyph glyph-name="backslash" unicode="\" horiz-adv-x="823" 
d="M707 -424l-641 1950l49 14l641 -1950z" />
    <glyph glyph-name="bracketright" unicode="]" horiz-adv-x="1110" 
d="M70 -289q0 100 64 158q65 57 198 57q82 0 160 -20t124 -43t140 -75q96 -52 147 -79v1745q-51 -27 -146 -79t-141 -75q-127 -63 -272 -63t-210 57t-64 158q0 33 16 68t35 47l10 -6q-33 -45 -33 -79t2 -43t18 -27q30 -36 182 -36q153 0 299 30q145 30 308 67l47 16v-1815
l-47 17q-418 96 -595 96t-204 -52q-10 -19 -10 -44q0 -55 41 -90l-10 -7q-59 59 -59 117z" />
    <glyph glyph-name="asciicircum" unicode="^" horiz-adv-x="872" 
d="M436 1268q40 0 58 -8t41 -37q98 -141 231 -351l-10 -8l-320 264l-319 -264l-11 8q133 209 232 351q23 29 41 37t57 8z" />
    <glyph glyph-name="underscore" unicode="_" horiz-adv-x="1220" 
d="M-14 -287v62h1249v-62h-1249z" />
    <glyph glyph-name="grave" unicode="`" 
d="M297 1417q0 37 19 59t53 21q70 0 120 -88q74 -125 203 -311l-8 -6q-92 70 -206 148t-148 109q-33 31 -33 68z" />
    <glyph glyph-name="a" unicode="a" horiz-adv-x="948" 
d="M383 31q139 0 227 108l8 418q-108 -45 -135 -53q-129 -49 -190 -117t-62 -176q0 -180 152 -180zM786 -16q-129 0 -168 137h-6q-55 -69 -138 -105t-177 -36t-158 55q-63 55 -63 159t52 160t120 82t186 65q117 39 184 77l-2 139q0 219 -184 219q-53 0 -94 -20t-55 -42
l16 -159q0 -33 -29 -56t-71 -22q-70 0 -70 92t95 157q94 64 234 64t223 -61t83 -242l-10 -459q0 -123 88 -122q92 0 108 170h13q-11 -136 -55 -194t-122 -58z" />
    <glyph glyph-name="b" unicode="b" horiz-adv-x="1095" 
d="M567 -14q131 0 216 130t85 326t-80 320q-80 125 -229 125t-242 -103v-579q66 -219 250 -219zM176 336v1014q0 82 -51 114t-139 35v8l323 21l8 -10v-709l7 -2q131 143 278 143q182 0 305 -136t123 -347t-140 -352t-319 -142q-69 0 -159 30t-150 65l-88 -115l-6 4
q8 109 8 379z" />
    <glyph glyph-name="c" unicode="c" horiz-adv-x="862" 
d="M479 -20q-195 0 -305 135t-108 342q0 207 119 350q120 143 315 143q141 0 223 -70t82 -171q0 -100 -92 -101q-33 0 -65 22t-32 62t13 80q12 39 12 55q-23 113 -141 113t-196 -119q-79 -119 -79 -323t81 -335q81 -132 216 -132q100 0 170 41t137 145l7 -4
q-115 -233 -357 -233z" />
    <glyph glyph-name="d" unicode="d" horiz-adv-x="1122" 
d="M557 35q125 0 227 106v600q-68 197 -256 197q-131 0 -216 -136t-85 -330t84 -316q84 -121 246 -121zM504 -25q-188 -1 -314 137t-124 352q0 214 141 350t330 136q115 0 247 -55v442q0 80 -52 117t-181 47v6l367 21l10 -10v-1368q0 -63 53 -101q29 -20 121 -24v-9
l-305 -18l-11 10v105l-8 2q-133 -140 -274 -140z" />
    <glyph glyph-name="e" unicode="e" horiz-adv-x="890" 
d="M477 938q-111 0 -181 -106t-73 -291l461 4q0 117 -14 197t-62 138t-131 58zM496 -20q-211 0 -321 139q-109 139 -109 342t111 346q112 143 298 143t275 -111q88 -112 88 -300v-15h-615v-20q0 -211 80 -341t238 -130q113 0 177 45t128 147l10 -6q-53 -113 -146 -176
t-214 -63z" />
    <glyph glyph-name="f" unicode="f" horiz-adv-x="618" 
d="M74 0v8q66 4 90 12q55 18 55 95v780h-211v29h211v63q0 274 137 424q111 119 271 119q92 0 136 -47t44 -113q0 -28 -26 -56q-25 -28 -65 -28t-66 27t-26 67t17 101q-18 29 -61 28q-100 0 -154 -107q-60 -123 -64 -478h256v-29h-256v-770q0 -74 54 -94q45 -18 131 -23v-8
h-473z" />
    <glyph glyph-name="g" unicode="g" horiz-adv-x="1011" 
d="M248 653q0 -119 52 -205t137 -86t134 85t49 203t-46 203q-48 85 -144 85q-182 0 -182 -285zM162 -218q0 -96 81 -162t249 -66t258 72t90 194q0 123 -115 164q-111 14 -319 14q-132 -16 -188 -68t-56 -148zM465 -461q-428 0 -428 248q0 88 94 147t256 76v10
q-242 53 -242 189q0 43 31 76q30 33 58 45t83 32v7q-221 98 -221 282q0 137 98 218t250 81q154 0 261 -84q3 2 35 20q98 54 165 54q117 0 117 -88q0 -98 -78 -98q-100 0 -88 155q-27 0 -73 -18t-78 -49v-11q66 -90 65 -190q0 -127 -100 -209t-219 -82h-129q-80 -25 -80 -96
q0 -47 37 -72q55 -37 194 -37l205 -10q114 -6 196 -80q82 -73 82 -203t-131 -222t-360 -91z" />
    <glyph glyph-name="h" unicode="h" horiz-adv-x="1144" 
d="M53 0v8q66 4 90 12q55 18 56 95v1235q1 80 -47 112t-144 37v8l326 21l8 -10v-756h4l70 70q28 28 60 52q88 66 216 66t195 -86q68 -86 67 -237v-504q0 -70 56 -94q41 -18 90 -21v-8h-459v8q72 4 104 12q63 18 64 95v540q0 103 -56 163t-132 61q-107 -1 -177 -49t-102 -101
v-604q0 -68 52 -90t112 -27v-8h-453z" />
    <glyph glyph-name="i" unicode="i" horiz-adv-x="552" 
d="M274 1239q-46 0 -76 32q-30 31 -30 73t31 76t75 34t76 -30q31 -30 31 -72t-31 -78q-31 -35 -76 -35zM74 0v8q66 4 90 12q55 18 55 95v649q0 63 -55 100t-121 41v8l307 23l10 -10v-799q0 -70 56 -96q55 -20 90 -23v-8h-432z" />
    <glyph glyph-name="j" unicode="j" horiz-adv-x="561" 
d="M298 1239q-44 0 -76 32q-32 31 -32 73t32 76t76 34t75 -30t31 -72t-32 -78q-30 -35 -74 -35zM16 -461q-74 0 -128 37t-54 98q0 35 31 65t74 30t73 -23t29 -68q0 -14 -10 -50t-6 -54q20 -8 51 -8q96 0 134 96t38 344v750q0 72 -55 108q-17 12 -77 26t-91 15v8l354 23
l10 -10v-846q0 -293 -129 -424q-66 -66 -118 -92t-126 -25z" />
    <glyph glyph-name="k" unicode="k" horiz-adv-x="1052" 
d="M53 0v8q66 4 90 12q55 18 56 95v1233q-1 80 -49 112t-142 39v8l324 21l10 -10v-1059q59 53 181 172t184 186q20 23 20 43q0 37 -160 55v9h400v-9q-101 -29 -145 -48q-72 -31 -314 -273q147 -50 251 -203q47 -69 101 -174q55 -104 70 -129q18 -35 63 -57t76 -23v-8h-276
q-47 156 -151 316t-208 159q-55 0 -92 -33v-317q0 -71 58 -93t100 -24v-8h-447z" />
    <glyph glyph-name="l" unicode="l" horiz-adv-x="538" 
d="M55 0v8q66 4 90 12q55 18 56 95v1228q-1 78 -51 113t-146 43v8l332 21l8 -8v-1399q0 -72 51 -94q33 -14 94 -19v-8h-434z" />
    <glyph glyph-name="m" unicode="m" horiz-adv-x="1753" 
d="M358 127q0 -110 164 -119v-8h-452v8q66 4 90 12q57 18 57 95v653q0 57 -54 95t-108 40v10l291 23l10 -10v-164h6l48 48q107 110 191 130q42 10 93 10q96 0 165 -53t97 -137q80 80 104 100q23 20 60 45q67 45 188 45t187 -91t66 -245v-489q0 -72 48 -92t107 -25v-8h-456v8
q57 2 92 12q66 18 65 95v544q0 99 -55 159t-131 61q-176 0 -273 -148v-606q0 -72 60 -96q41 -18 98 -21v-8h-450v8q49 2 86 12q66 18 65 95v544q0 99 -55 159t-131 61q-168 0 -273 -150v-602z" />
    <glyph glyph-name="n" unicode="n" horiz-adv-x="1163" 
d="M70 0v8q66 4 90 12q57 18 57 95v649q0 70 -50 104t-106 37v8l289 23l8 -8v-166h4l46 46q109 112 193 132q42 10 93 10q139 0 208 -86t69 -237v-504q0 -70 48 -91t97 -24v-8h-457v8q72 4 105 12q63 18 63 95v540q0 103 -57 163t-134 60t-157 -38q-80 -39 -121 -111v-604
q0 -68 62 -94q43 -18 104 -23v-8h-454z" />
    <glyph glyph-name="o" unicode="o" horiz-adv-x="1028" 
d="M516 -14q139 0 215 141t76 344q0 262 -121 394q-68 73 -174 73t-174 -77q-70 -77 -94 -174t-23 -220q0 -277 126 -410q69 -71 169 -71zM965 470q0 -208 -125 -352q-126 -144 -322 -145q-196 1 -325 135t-129 351t125 354q126 137 328 137t325 -136t123 -344z" />
    <glyph glyph-name="p" unicode="p" horiz-adv-x="1120" 
d="M590 -12q131 0 216 127t85 323t-79 323q-80 126 -226 126t-244 -111v-602q22 -68 86 -127t162 -59zM35 -463v8q76 4 110 17q53 16 54 106v1102q-1 66 -51 100t-115 37v6l297 23l8 -6v-131l8 -2q141 154 279 153q182 0 306 -137t124 -351q-1 -214 -141 -350t-328 -137
q-150 0 -236 64h-8v-367q0 -76 59 -100t136 -27v-8h-502z" />
    <glyph glyph-name="q" unicode="q" horiz-adv-x="1093" 
d="M557 37q125 0 227 98v610q-25 72 -89 133q-65 60 -167 60q-129 0 -215 -137t-86 -331t84 -313q84 -120 246 -120zM616 -463v8q70 4 113 17q55 16 55 98v451l-6 2q-131 -137 -274 -138q-184 1 -311 139t-127 350t142 349t320 137q140 0 256 -77q31 -19 33 -21l123 123
l4 -4q-16 -328 -16 -373v-922q0 -78 55 -102q43 -20 119 -29v-8h-486z" />
    <glyph glyph-name="r" unicode="r" horiz-adv-x="747" 
d="M70 0v8q66 4 90 12q57 18 57 95v647q0 72 -50 106t-106 37v8l289 23l8 -8v-168h4q68 86 142 136t125 50t86 -30t35 -74t-25 -77q-25 -32 -70 -32q-92 0 -92 86q0 35 21 68q-72 0 -133 -52t-93 -106v-604q0 -72 56 -94q43 -18 131 -23v-8h-475z" />
    <glyph glyph-name="s" unicode="s" horiz-adv-x="784" 
d="M711 252q-1 -122 -93 -201q-92 -78 -231 -78t-260 82l-39 -63h-8l-10 307h10q31 -131 118 -221q86 -90 200 -90t172 62t58 146t-56 125q-58 41 -197 83t-210 104t-71 180q0 117 77 190q77 72 209 72t224 -61l39 63h8l15 -272h-11q-25 102 -106 179q-82 77 -177 77
q-96 0 -146 -53t-50 -131t47 -112t185 -77q16 -6 24 -8q139 -45 209 -113t70 -190z" />
    <glyph glyph-name="t" unicode="t" horiz-adv-x="681" 
d="M430 -16q-229 0 -229 276v635h-201v29h205v317h137v-317h281v-29h-279v-623q0 -110 31 -164t102 -54t120 50q48 51 62 140h13q-37 -260 -242 -260z" />
    <glyph glyph-name="u" unicode="u" horiz-adv-x="1126" 
d="M443 -23q-123 1 -188 91t-65 243v457q0 66 -47 98t-106 35v10l289 25l10 -10v-668q0 -104 52 -164t130 -61q174 0 266 137v604q0 68 -55 103q-31 20 -141 24v10l330 25l10 -10v-779q0 -61 53 -98q31 -20 96 -24v-9l-276 -18l-15 14v125h-6q-90 -90 -152 -125t-185 -35z
" />
    <glyph glyph-name="v" unicode="v" horiz-adv-x="931" 
d="M-29 924h408v-11q-119 -6 -119 -47q0 -16 116 -282t165 -394h6q166 397 244 594q12 37 12 58q0 31 -54 49t-102 24v9h330v-9q-39 -5 -85 -35t-67 -77q-296 -689 -333 -819h-17q-79 200 -189 446t-167 383q-35 86 -148 102v9z" />
    <glyph glyph-name="w" unicode="w" horiz-adv-x="1452" 
d="M-16 924h403v-11q-121 -4 -121 -47q0 -14 128 -328t136 -339h5q16 41 92 229t112 295q-31 89 -47 121q-33 64 -123 71v9h367v-9q-109 -4 -109 -43q1 -26 15 -62t60 -155t95 -245t84 -217h6q215 569 225 602t11 53q0 33 -68 51t-110 16v9h360v-9q-55 -1 -101 -37t-67 -90
l-229 -589q-31 -76 -78 -215h-12q-49 139 -147 388q-97 249 -121 314q-168 -408 -273 -702h-12q-162 410 -342 827q-18 43 -56 72t-83 32v9z" />
    <glyph glyph-name="x" unicode="x" horiz-adv-x="911" 
d="M166 72q0 -44 176 -64v-8h-342v6q102 37 168 121l235 307l-262 387q-37 57 -63 75q-27 17 -64 19v9h367v-11q-35 0 -75 -9t-40 -22q0 -12 10 -28t213 -315q152 203 203 280q8 10 8 36t-155 60v9h340v-9q-117 -29 -172 -104q-128 -169 -213 -287q49 -72 164 -243t125 -185
t13 -19t16 -23t27 -23l26 -12t42 -11v-8h-393v8q131 10 131 43q0 18 -28 64l-209 305q-182 -238 -215 -284t-33 -64z" />
    <glyph glyph-name="y" unicode="y" horiz-adv-x="917" 
d="M614 924h351v-9q-31 -5 -79 -37t-67 -75l-254 -606q-23 -55 -53 -133q-125 -322 -224 -438q-75 -87 -171 -87q-47 0 -92 31t-45 81t29 83q30 33 71 33q96 0 96 -91v-90q133 18 285 398q-94 246 -210 512t-136 317q-35 88 -142 102v9h402v-11q-119 -6 -119 -47l14 -43
q16 -47 120 -285t149 -356h2q255 609 258 660q0 24 -69 46t-116 27v9z" />
    <glyph glyph-name="z" unicode="z" horiz-adv-x="868" 
d="M53 0v12l592 895q-399 1 -452 -21t-95 -220h-8v258h719v-13l-590 -895q73 -2 187 -2t249 6q59 2 92 94t56 187h10l2 -301h-762z" />
    <glyph glyph-name="braceleft" unicode="{" horiz-adv-x="839" 
d="M786 -346q-229 0 -327 71t-99 279q0 41 17 131q16 90 16 133q0 150 -81 202t-249 65v108q170 13 250 65t80 201q0 43 -16 133t-17 132q0 210 98 280t328 70v-11q-100 -4 -178 -51q-96 -58 -96 -227l18 -234q0 -206 -110 -278q-54 -37 -108 -54t-136 -30v-100
q82 -11 134 -29t108 -55q114 -74 112 -279l-18 -233q0 -192 130 -247q66 -28 144 -32v-10z" />
    <glyph glyph-name="bar" unicode="|" horiz-adv-x="552" 
d="M250 -424v1952h53v-1952h-53z" />
    <glyph glyph-name="braceright" unicode="}" horiz-adv-x="839" 
d="M53 1524q229 0 327 -71t99 -279q0 -42 -16 -132t-17 -133q0 -151 80 -201t250 -65v-108q-168 -13 -249 -65t-81 -202q0 -43 16 -133t17 -131q-1 -210 -99 -280t-327 -70v10q148 7 210 76q63 69 65 203l-19 233q0 205 112 279q56 37 108 54t135 30v100q-82 11 -136 29
q-146 48 -191 161q-28 70 -28 172l19 234q0 169 -97 227q-78 47 -178 51v11z" />
    <glyph glyph-name="asciitilde" unicode="~" horiz-adv-x="1064" 
d="M381 633q90 0 203 -45t157 -45q139 0 211 135l9 -4q-27 -98 -97 -171t-162 -73t-202 45t-154 45q-163 0 -231 -127l-11 4q27 94 107 165t170 71z" />
    <glyph glyph-name="nbspace" unicode="&#xa0;" horiz-adv-x="245" 
 />
    <glyph glyph-name="exclamdown" unicode="&#xa1;" horiz-adv-x="655" 
d="M328 1438q49 0 83 -34q33 -34 33 -83t-34 -84t-82 -35q-49 0 -84 35t-35 84t35 83t84 34zM326 -14q-46 0 -77 37q-30 37 -30 76t44 355t59 545h12q9 -239 54 -550q44 -311 44 -350t-30 -76t-76 -37z" />
    <glyph glyph-name="cent" unicode="&#xa2;" horiz-adv-x="946" 
d="M268 618q0 -238 135 -362l197 831q-25 6 -53 7q-115 0 -197 -119t-82 -357zM545 1104q20 0 57 -4l64 272l26 -6l-63 -270q100 -20 155 -85t56 -145q0 -104 -92 -104q-35 0 -66 22t-31 71q0 50 17 92q16 42 16 54q-10 51 -59 76l-199 -839q63 -43 152 -43q89 -1 160 35
t136 139l7 -2q-115 -233 -357 -234q-53 0 -118 14l-91 -378l-24 6l90 381q-129 45 -200 169q-71 125 -71 309t120 327t315 143z" />
    <glyph glyph-name="sterling" unicode="&#xa3;" horiz-adv-x="1480" 
d="M-74 -40q0 -58 56 -101t153 -43t191 47t159 125q-209 100 -381 100q-80 0 -129 -35t-49 -93zM128 -201q-108 0 -168 51q-60 50 -60 134t104 132t223 48t312 -47q18 90 10 270h-342v21h342q-4 131 -4 194h-326v23h326q12 365 165 585t392 220q184 0 284 -110t100 -247
t-86 -228q-88 -91 -206 -91t-181 72t-63 168t37 175l10 -4q-33 -77 -33 -161t62 -142q60 -58 158 -59q98 0 150 73t52 209t-68 234q-69 98 -204 98q-356 0 -377 -624q-4 -117 -8 -168h328v-23h-330q-10 -96 -31 -194h344v-21h-348q-57 -209 -104 -289q53 -18 151 -62
q211 -95 334 -93q146 0 207 113q49 91 70 212l12 -2q-55 -430 -473 -430q-97 0 -225 64q-27 12 -83 42t-75 38q-63 -76 -166 -128q-104 -52 -212 -53z" />
    <glyph glyph-name="currency" unicode="&#xa4;" horiz-adv-x="1140" 
d="M684 -29q-199 0 -323 135t-146 390h-152v22h150q-4 111 2 184h-152v23h156q31 237 168 391t350 154q160 0 251 -72t91 -168q-1 -63 -27 -100t-67 -37t-65 28q-24 29 -23 65q0 36 23 77t22 72q-8 53 -68 88t-145 34q-145 0 -236 -145t-108 -387h481v-23h-483
q-2 -70 2 -184h399v-22h-397q14 -201 103 -329t249 -128q229 0 351 260l10 -6q-68 -154 -163 -238t-253 -84z" />
    <glyph glyph-name="yen" unicode="&#xa5;" horiz-adv-x="1148" 
d="M258 0v6q123 6 157 18q68 25 68 99v203h-321v22h321v172h-321v23h319q-180 367 -274 532q-55 96 -117 131q-41 25 -102 29v8h516v-8q-174 -12 -174 -55q0 -59 303 -594q322 535 321 571q0 61 -209 78v8h414v-8q-39 -4 -82 -29t-65 -55q-139 -190 -377 -608h332v-23h-334
v-172h334v-22h-334v-193q0 -73 54 -97t159 -30v-6h-588z" />
    <glyph glyph-name="brokenbar" unicode="&#xa6;" horiz-adv-x="552" 
d="M250 743v785h53v-785h-53zM250 -424v803h53v-803h-53z" />
    <glyph glyph-name="section" unicode="&#xa7;" horiz-adv-x="1064" 
d="M842 317q0 88 -97 203q-51 61 -167 197t-189 231q-74 -14 -124 -65t-50 -139t100 -207q47 -57 177 -203t176 -213q174 45 174 196zM464 -465q-114 0 -180 70q-67 71 -67 137t30 102t73 37q44 -1 70 -25t26 -67t-34 -77t-34 -68t35 -65q35 -32 88 -32q88 0 139 71
q52 71 52 161t-27 144q-55 111 -242 310q-187 200 -240 305q-36 69 -36 170t80 169t186 81q-82 123 -82 246t95 215q96 92 208 92t174 -68q62 -69 62 -135t-30 -104q-30 -37 -73 -37t-69 25t-27 70q0 44 50 76t50 53q0 45 -39 77q-38 32 -112 31q-74 1 -132 -67t-58 -163
t55 -175q66 -102 180 -230q115 -128 177 -202t99 -143t37 -157q0 -209 -272 -251q90 -135 90 -263t-94 -220q-94 -93 -208 -93z" />
    <glyph glyph-name="dieresis" unicode="&#xa8;" 
d="M728 1188q-44 0 -74 30t-30 72t30 72q30 31 74 31t74 -29t30 -71q0 -41 -30 -73t-74 -32zM295 1188q-43 0 -74 30t-31 72t31 72q31 31 74 31t74 -29t31 -71q0 -41 -32 -73q-30 -32 -73 -32z" />
    <glyph glyph-name="copyright" unicode="&#xa9;" horiz-adv-x="1923" 
d="M963 -322q333 0 579 246t246 588t-246 588t-580 246t-581 -245q-246 -245 -246 -587q0 -225 114 -419q115 -193 305 -305t409 -112zM1841 514q0 -362 -262 -624t-617 -261q-355 0 -618 261q-262 260 -262 622t262 622t619 261q171 0 333 -71q332 -146 473 -469
q72 -163 72 -341zM975 27q-213 0 -344 130t-131 346t143 358t361 143q160 0 258 -70l45 84h8l8 -371h-8q-115 338 -350 338q-115 0 -203 -125q-88 -126 -88 -328t99 -321t243 -119q215 0 332 238l10 -6q-133 -297 -383 -297z" />
    <glyph glyph-name="ordfeminine" unicode="&#xaa;" horiz-adv-x="692" 
d="M117 502v28h493v-28h-493zM305 739q66 0 109 54l6 245q-201 -72 -201 -190q-1 -47 25 -78t61 -31zM573 758q51 0 58 104h10q-12 -164 -121 -164q-70 0 -96 84q-74 -86 -180 -86q-61 0 -100 36q-38 36 -38 100t32 97q32 34 75 52q43 19 112 39t95 33v63q0 74 -31 108
t-73 34t-70 -35l10 -95q0 -55 -59 -55q-59 -1 -59 59t58 99q60 39 142 39t135 -35t53 -145l-8 -263q0 -32 18 -50q18 -19 37 -19z" />
    <glyph glyph-name="guillemotleft" unicode="&#xab;" horiz-adv-x="1107" 
d="M520 460q0 38 30 62t189 148q158 124 240 200l6 -6l-313 -409l313 -404l-6 -6q-53 45 -221 181t-203 166t-35 68zM92 460q0 38 30 62t189 148q158 124 240 200l6 -6l-313 -409l313 -404l-6 -6q-53 45 -221 181t-203 166t-35 68z" />
    <glyph glyph-name="logicalnot" unicode="&#xac;" horiz-adv-x="1138" 
d="M948 80v446h-862v58h920v-504h-58z" />
    <glyph glyph-name="registered" unicode="&#xae;" horiz-adv-x="958" 
d="M416 1092h39q106 0 106 94q0 49 -25 74q-26 25 -65 24h-55v-192zM479 717q141 0 241 101q99 100 99 248t-99 250q-98 102 -240 101q-142 0 -241 -101q-99 -100 -99 -248t98 -250q100 -102 241 -101zM479 694q-151 0 -259 108t-108 266t108 264q108 108 260 108t258 -108
q108 -108 108 -266t-108 -264q-108 -108 -259 -108zM354 1247q0 39 -59 39v6h209q51 0 90 -24t39 -70q0 -70 -119 -102v-6q30 -4 58 -22t34 -40t14 -57t15 -57q6 -22 29 -21q33 0 32 59h9q-1 -46 -15 -66t-55 -20q-70 0 -83 109t-95 108h-41v-168q0 -36 59 -36v-7h-180v7
q59 0 59 36v332z" />
    <glyph glyph-name="macron" unicode="&#xaf;" 
d="M174 1233v100h676v-100h-676z" />
    <glyph glyph-name="macron" unicode="&#x304;" 
d="M174 1233v100h676v-100h-676z" />
    <glyph glyph-name="degree" unicode="&#xb0;" horiz-adv-x="778" 
d="M383 862q84 0 138 84t54 203t-49 205t-138 86t-138 -86t-49 -203t49 -203t133 -86zM382 848q-122 0 -206 79t-84 214t90 224t210 89t207 -79t87 -215t-91 -224t-213 -88z" />
    <glyph glyph-name="twosuperior" unicode="&#xb2;" horiz-adv-x="935" 
d="M156 690v58q41 27 174 110t216 165q83 83 112 152q30 69 30 155t-47 136t-145 50t-174 -79q-78 -79 -78 -163q0 -100 105 -100t171 112l8 -8q-100 -166 -254 -166q-55 0 -90 33t-34 94q0 102 115 196q116 93 257 93q140 0 228 -62t88 -153q0 -127 -96 -219t-336 -205
q-37 -16 -125 -86h446q52 0 84 43q33 43 52 74t26 41l6 -3l-129 -268h-610z" />
    <glyph glyph-name="threesuperior" unicode="&#xb3;" horiz-adv-x="923" 
d="M381 680q-102 0 -190 50q-87 50 -87 136q0 51 33 83t71 32q75 0 77 -76q0 -37 -39 -63t-39 -47q0 -41 47 -73t127 -32q115 0 202 88t87 197q0 74 -30 126t-95 52q-43 0 -130 -73q-28 -23 -36 -31l-19 26q32 16 78 42q45 26 76 43q31 18 43 28t35 27t31 31t22 37
q14 24 16 85q1 60 -45 104t-110 44q-66 0 -144 -56t-77 -127q0 -84 88 -84q47 0 114 56l5 -5q-31 -40 -81 -70t-100 -30q-129 0 -129 103q0 81 116 153t248 72t193 -53t61 -115t-65 -114q-66 -54 -188 -83q117 0 193 -43t77 -141q0 -131 -128 -215t-308 -84z" />
    <glyph glyph-name="acute" unicode="&#xb4;" 
d="M653 1497q33 0 53 -21q19 -22 19 -55t-22 -61t-148 -112q-125 -84 -217 -156l-8 6q129 186 202 311q51 88 121 88z" />
    <glyph glyph-name="mu" unicode="&#xb5;" horiz-adv-x="1132" 
d="M207 -463q-33 0 -57 29t-23 82q0 53 21 152q22 98 27 144t5 185v797h144v-643q0 -99 60 -163t146 -65q184 0 250 109v762h144v-738q0 -38 30 -72t82 -34q51 0 81 48t36 114h6q-8 -142 -51 -202t-139 -60q-133 0 -185 157h-6q-131 -159 -302 -159t-267 143h-4v-137
q0 -68 42 -182t42 -162q-1 -48 -25 -76q-24 -29 -57 -29z" />
    <glyph glyph-name="mu" unicode="&#x3bc;" horiz-adv-x="1132" 
d="M207 -463q-33 0 -57 29t-23 82q0 53 21 152q22 98 27 144t5 185v797h144v-643q0 -99 60 -163t146 -65q184 0 250 109v762h144v-738q0 -38 30 -72t82 -34q51 0 81 48t36 114h6q-8 -142 -51 -202t-139 -60q-133 0 -185 157h-6q-131 -159 -302 -159t-267 143h-4v-137
q0 -68 42 -182t42 -162q-1 -48 -25 -76q-24 -29 -57 -29z" />
    <glyph glyph-name="paragraph" unicode="&#xb6;" horiz-adv-x="1230" 
d="M635 -256v973h-62q-250 0 -351 95t-101 228t83 239q42 54 119 87t179 33h706v-25h-290v-1630h-29v1630h-225v-1630h-29z" />
    <glyph glyph-name="periodcentered" unicode="&#xb7;" horiz-adv-x="466" 
d="M236 440q-49 0 -83 34t-34 83t34 84t83 35q50 0 84 -35t34 -84t-34 -83t-84 -34z" />
    <glyph glyph-name="periodcentered" unicode="&#x2219;" horiz-adv-x="466" 
d="M236 440q-49 0 -83 34t-34 83t34 84t83 35q50 0 84 -35t34 -84t-34 -83t-84 -34z" />
    <glyph glyph-name="cedilla" unicode="&#xb8;" 
d="M371 -467v14q279 0 278 142q0 86 -174 86v241h17v-135q285 0 284 -155q0 -123 -118 -158q-119 -35 -287 -35z" />
    <glyph glyph-name="onesuperior" unicode="&#xb9;" horiz-adv-x="686" 
d="M90 694v8q131 8 143 13q49 14 50 65v662q-29 -6 -64 -6q-92 0 -180 67l2 4q191 -75 395 27h6q-20 -84 -20 -209v-539q0 -49 47 -65q27 -10 137 -19v-8h-516z" />
    <glyph glyph-name="ordmasculine" unicode="&#xba;" horiz-adv-x="733" 
d="M119 502v28h493v-28h-493zM368 700q76 0 112 84t36 194t-36 196q-36 84 -111 83q-55 0 -93 -48q-62 -79 -61 -208q0 -129 38 -215t115 -86zM370 688q-114 0 -194 80t-80 209t78 211t195 82t193 -81t75 -205q0 -124 -77 -210q-76 -86 -190 -86z" />
    <glyph glyph-name="guillemotright" unicode="&#xbb;" horiz-adv-x="1107" 
d="M1016 460q0 -38 -35 -68t-203 -166t-221 -181l-6 6l313 404l-313 409l6 6q80 -76 238 -199q159 -124 190 -149q31 -24 31 -62zM588 460q0 -38 -35 -68t-203 -166t-221 -181l-6 6l313 404l-313 409l6 6q80 -76 238 -199q159 -124 190 -149q31 -24 31 -62z" />
    <glyph glyph-name="onequarter" unicode="&#xbc;" horiz-adv-x="1146" 
d="M328 694v8q131 8 143 13q49 14 49 65v662q-27 -6 -63 -6q-92 0 -181 67l3 4q84 -33 157 -32q119 0 238 59h6q-20 -84 -21 -209v-539q0 -49 48 -65q27 -10 137 -19v-8h-516zM612 -129v389l-391 -389h391zM96 508v43h953v-43h-953zM467 -465v8q86 6 102 13q43 12 43 61v197
h-434v34l533 529h30v-506q156 0 183 18q41 31 41 101h8v-301h-8q-4 78 -45 110q-18 14 -179 15v-189q0 -49 41 -63q35 -14 103 -19v-8h-418z" />
    <glyph glyph-name="onehalf" unicode="&#xbd;" horiz-adv-x="1146" 
d="M96 508v43h953v-43h-953zM328 694v8q131 8 143 13q49 14 49 65v662q-27 -6 -63 -6q-92 0 -181 67l3 4q84 -33 157 -32q119 0 238 59h6q-20 -84 -21 -209v-539q0 -49 48 -65q27 -10 137 -19v-8h-516zM250 -465v57q41 27 174 110t216 166q83 84 113 152q29 68 29 155
t-47 136t-145 49t-174 -78q-78 -78 -78 -163q0 -101 105 -101t171 113l9 -8q-100 -166 -254 -166q-55 0 -90 33t-35 94q0 102 115 196q115 93 257 93q142 -1 229 -63t87 -152q0 -127 -96 -219t-336 -205q-37 -16 -125 -86h446q52 0 84 43q33 43 52 74t26 40l6 -2l-129 -268
h-610z" />
    <glyph glyph-name="threequarters" unicode="&#xbe;" horiz-adv-x="1146" 
d="M612 -129v389l-391 -389h391zM96 508v43h953v-43h-953zM467 -465v8q86 6 102 13q43 12 43 61v197h-434v34l533 529h30v-506q156 0 183 18q41 31 41 101h8v-301h-8q-4 78 -45 110q-18 14 -179 15v-189q0 -49 41 -63q35 -14 103 -19v-8h-418zM473 680q-102 0 -189 50
t-87 136q0 51 32 83q33 32 71 32q75 0 77 -76q0 -37 -39 -63t-39 -47q0 -41 47 -73t127 -32q115 0 202 88t87 197q0 74 -30 126t-95 52q-42 0 -134 -77q-24 -19 -32 -27l-18 26q24 12 73 40t80 45q31 18 43 28t35 27t31 31q7 14 23 39q16 26 16 85q0 58 -45 102t-111 44
t-143 -56q-78 -56 -78 -127q0 -84 88 -84q47 0 115 56l4 -5q-31 -40 -81 -70t-100 -30q-129 0 -129 103q0 81 116 153t248 72t193 -53t61 -115t-65 -114q-66 -54 -188 -83q117 0 194 -43t76 -141q0 -131 -128 -215t-308 -84z" />
    <glyph glyph-name="questiondown" unicode="&#xbf;" horiz-adv-x="937" 
d="M580 1432q49 0 84 -34q34 -34 34 -83t-34 -84t-84 -35q-49 0 -84 35t-35 84t35 83t84 34zM590 1077v-385q-239 -35 -302 -155q-30 -57 -30 -140q0 -197 73 -299t189 -102q41 0 81 14t54 39q-16 109 -6 156q23 61 92 61q39 0 61 -26t21 -68q0 -74 -80 -130t-223 -56
q-209 0 -315 114q-107 114 -107 289q0 174 124 291t337 139l16 258h15z" />
    <glyph glyph-name="Agrave" unicode="&#xc0;" horiz-adv-x="1380" 
d="M496 1840q0 28 19 50t52 21q70 0 121 -88q74 -125 203 -312l-8 -6q-91 71 -189 137t-127 88t-40 33q-11 9 -21 29t-10 48zM375 547h516l-248 655zM485 0h-538v8q188 10 264 199q324 780 498 1214h18q117 -295 294 -751t206 -525q53 -128 207 -137v-8h-594v8q76 4 148 24
t73 52q0 33 -8 51l-154 387h-532q-133 -328 -131 -403q0 -49 82 -78t167 -33v-8z" />
    <glyph glyph-name="Aacute" unicode="&#xc1;" horiz-adv-x="1380" 
d="M852 1911q33 0 52 -22q20 -23 20 -55t-25 -62t-147 -113q-123 -82 -215 -154l-9 6q129 186 203 312q51 88 121 88zM375 547h516l-248 655zM485 0h-538v8q188 10 264 199q324 780 498 1214h18q117 -295 294 -751t206 -525q53 -128 207 -137v-8h-594v8q76 4 148 24t73 52
q0 33 -8 51l-154 387h-532q-133 -328 -131 -403q0 -49 82 -78t167 -33v-8z" />
    <glyph glyph-name="Acircumflex" unicode="&#xc2;" horiz-adv-x="1380" 
d="M712 1915q34 0 49 -8t33 -35t93 -150q74 -123 133 -211l-8 -8l-299 275l-305 -273l-9 6q89 132 167 259t95 136t51 9zM375 547h516l-248 655zM485 0h-538v8q188 10 264 199q324 780 498 1214h18q117 -295 294 -751t206 -525q53 -128 207 -137v-8h-594v8q76 4 148 24
t73 52q0 33 -8 51l-154 387h-532q-133 -328 -131 -403q0 -49 82 -78t167 -33v-8z" />
    <glyph glyph-name="Atilde" unicode="&#xc3;" horiz-adv-x="1380" 
d="M573 1792q86 0 173 -55t131 -56q86 0 127 33t75 107l8 -2q-27 -98 -91 -170t-148 -72t-139 29q-55 28 -99 56t-95 28q-52 0 -93 -34t-84 -110l-8 4q33 96 95 169t148 73zM375 547h516l-248 655zM485 0h-538v8q188 10 264 199q324 780 498 1214h18q117 -295 294 -751
t206 -525q53 -128 207 -137v-8h-594v8q76 4 148 24t73 52q0 33 -8 51l-154 387h-532q-133 -328 -131 -403q0 -49 82 -78t167 -33v-8z" />
    <glyph glyph-name="Adieresis" unicode="&#xc4;" horiz-adv-x="1380" 
d="M823 1652q0 42 30 72t74 31q43 0 73 -29q30 -28 30 -70t-30 -74t-73 -32q-44 0 -74 30t-30 72zM389 1652q0 42 31 72t74 31q44 0 74 -29q30 -28 30 -70t-30 -74t-74 -32q-43 0 -74 30t-31 72zM375 547h516l-248 655zM485 0h-538v8q188 10 264 199q324 780 498 1214h18
q117 -295 294 -751t206 -525q53 -128 207 -137v-8h-594v8q76 4 148 24t73 52q0 33 -8 51l-154 387h-532q-133 -328 -131 -403q0 -49 82 -78t167 -33v-8z" />
    <glyph glyph-name="Aring" unicode="&#xc5;" horiz-adv-x="1380" 
d="M711 1511q65 -1 97 53t32 137t-32 137t-96 54t-98 -53t-32 -137q0 -191 129 -191zM710 1501q-103 0 -163 54q-59 55 -59 145t62 146q64 56 162 56t160 -54q62 -56 62 -146t-60 -146t-164 -55zM375 547h516l-248 655zM485 0h-538v8q188 10 264 199q324 780 498 1214h18
q117 -295 294 -751t206 -525q53 -128 207 -137v-8h-594v8q76 4 148 24t73 52q0 33 -8 51l-154 387h-532q-133 -328 -131 -403q0 -49 82 -78t167 -33v-8z" />
    <glyph glyph-name="AE" unicode="&#xc6;" horiz-adv-x="1970" 
d="M956 594v766h-34q-255 -438 -439 -766h473zM-53 0v8q80 4 139 39q70 39 140 151t305 523q237 410 364 641q-55 18 -209 29v8h1126v-309h-10q-18 80 -80 178t-126 106q-63 8 -191 8h-283v-649h224q53 1 92 15t46 21l32 32q39 39 57 200h10v-563h-10q-4 49 -23 121
q-18 72 -36 91l-30 30t-50 24q-37 12 -88 13h-224v-514q0 -123 44 -155t161 -32h173q55 0 73 2t74 7q77 7 112 42t82 139t72 177h10l-27 -383h-1165v8q123 6 162 23q63 25 63 100v438h-485q-153 -272 -189 -343q-36 -70 -36 -112t86 -72t172 -34v-8h-557z" />
    <glyph glyph-name="Ccedilla" unicode="&#xc7;" horiz-adv-x="1288" 
d="M682 -119q285 0 285 -155q0 -123 -118 -158t-288 -35v14q279 0 279 142q0 86 -174 86v198q-270 23 -428 214t-158 497t203 522q203 215 501 215q82 0 186 -37t171 -96l65 133h13l8 -503h-10q-84 240 -199 362t-295 123q-180 0 -315 -184t-136 -529q0 -293 151 -482
t365 -190q180 0 297 98t175 249l20 -11q-164 -385 -543 -385l-55 2v-90z" />
    <glyph glyph-name="Egrave" unicode="&#xc8;" horiz-adv-x="1327" 
d="M449 1840q0 28 19 50t52 21q70 0 121 -88q74 -125 203 -312l-8 -6q-92 71 -190 137t-126 88q-29 22 -40 33q-11 9 -21 29t-10 48zM88 0v8q123 6 162 23q63 25 63 100v1124q0 76 -63 101q-72 31 -162 35v8h1081v-309h-10q-19 80 -81 178t-125 106t-191 8h-283v-649h223
q52 1 92 15t47 21t31 32q39 39 58 200h10v-563h-10q-4 49 -23 121t-37 91l-30 30t-49 24t-89 13h-223v-514q0 -123 44 -155t161 -32h173q55 0 73 2t74 7q77 7 112 42t82 139t72 177h10l-27 -383h-1165z" />
    <glyph glyph-name="Eacute" unicode="&#xc9;" horiz-adv-x="1327" 
d="M903 1911q33 0 52 -22q19 -23 19 -55t-24 -62q-25 -30 -147 -113q-123 -82 -215 -154l-8 6q129 186 202 312q51 88 121 88zM88 0v8q123 6 162 23q63 25 63 100v1124q0 76 -63 101q-72 31 -162 35v8h1081v-309h-10q-19 80 -81 178t-125 106t-191 8h-283v-649h223
q52 1 92 15t47 21t31 32q39 39 58 200h10v-563h-10q-4 49 -23 121t-37 91l-30 30t-49 24t-89 13h-223v-514q0 -123 44 -155t161 -32h173q55 0 73 2t74 7q77 7 112 42t82 139t72 177h10l-27 -383h-1165z" />
    <glyph glyph-name="Ecircumflex" unicode="&#xca;" horiz-adv-x="1327" 
d="M664 1915q34 0 50 -8q15 -8 33 -35q19 -27 93 -150t133 -211l-8 -8l-299 275l-306 -273l-8 6q68 102 141 218t91 143t32 35t48 8zM88 0v8q123 6 162 23q63 25 63 100v1124q0 76 -63 101q-72 31 -162 35v8h1081v-309h-10q-19 80 -81 178t-125 106t-191 8h-283v-649h223
q52 1 92 15t47 21t31 32q39 39 58 200h10v-563h-10q-4 49 -23 121t-37 91l-30 30t-49 24t-89 13h-223v-514q0 -123 44 -155t161 -32h173q55 0 73 2t74 7q77 7 112 42t82 139t72 177h10l-27 -383h-1165z" />
    <glyph glyph-name="Edieresis" unicode="&#xcb;" horiz-adv-x="1327" 
d="M896 1550q-44 0 -74 30t-30 72t30 72t74 31q44 0 74 -29q30 -28 30 -70t-30 -74t-74 -32zM463 1550q-43 0 -74 30t-31 72t31 72t74 31q43 0 74 -29q31 -28 31 -70t-32 -74q-30 -32 -73 -32zM88 0v8q123 6 162 23q63 25 63 100v1124q0 76 -63 101q-72 31 -162 35v8h1081
v-309h-10q-19 80 -81 178t-125 106t-191 8h-283v-649h223q52 1 92 15t47 21t31 32q39 39 58 200h10v-563h-10q-4 49 -23 121t-37 91l-30 30t-49 24t-89 13h-223v-514q0 -123 44 -155t161 -32h173q55 0 73 2t74 7q77 7 112 42t82 139t72 177h10l-27 -383h-1165z" />
    <glyph glyph-name="Igrave" unicode="&#xcc;" horiz-adv-x="800" 
d="M135 1840q-1 28 19 50t53 21q70 0 121 -88q74 -125 202 -312l-8 -6q-92 71 -189 137t-126 88t-40 33q-11 9 -21 29t-11 48zM104 0v8q119 6 150 19q63 25 63 98v1132q0 74 -63 99q-80 31 -150 35v8h592v-8q-90 -4 -149 -25q-63 -20 -64 -98v-1133q1 -73 61 -97t152 -30v-8
h-592z" />
    <glyph glyph-name="Iacute" unicode="&#xcd;" horiz-adv-x="800" 
d="M608 1911q33 0 52 -22q20 -23 20 -55t-23 -61t-148 -113q-124 -83 -216 -155l-8 6q129 186 202 312q51 88 121 88zM104 0v8q119 6 150 19q63 25 63 98v1132q0 74 -63 99q-80 31 -150 35v8h592v-8q-90 -4 -149 -25q-63 -20 -64 -98v-1133q1 -73 61 -97t152 -30v-8h-592z
" />
    <glyph glyph-name="Icircumflex" unicode="&#xce;" horiz-adv-x="800" 
d="M400 1915q34 0 50 -8t33 -35q18 -27 92 -150t134 -211l-9 -8l-299 275l-305 -273l-8 6q68 102 141 218q72 116 90 143q19 27 33 35t48 8zM104 0v8q119 6 150 19q63 25 63 98v1132q0 74 -63 99q-80 31 -150 35v8h592v-8q-90 -4 -149 -25q-63 -20 -64 -98v-1133
q1 -73 61 -97t152 -30v-8h-592z" />
    <glyph glyph-name="Idieresis" unicode="&#xcf;" horiz-adv-x="800" 
d="M615 1550q-43 0 -73 30t-30 72t30 72t74 31q44 0 73 -29q30 -28 30 -70t-30 -74t-74 -32zM182 1550q-44 0 -74 30t-30 72t31 72t73 31q42 0 74 -29q31 -28 31 -70t-31 -74t-74 -32zM104 0v8q119 6 150 19q63 25 63 98v1132q0 74 -63 99q-80 31 -150 35v8h592v-8
q-90 -4 -149 -25q-63 -20 -64 -98v-1133q1 -73 61 -97t152 -30v-8h-592z" />
    <glyph glyph-name="Eth" unicode="&#xd0;" horiz-adv-x="1568" 
d="M719 14q281 0 425 186t144 493q0 308 -170 501t-448 192q-117 0 -191 -6v-618h322v-37h-322v-547q11 -90 63 -127t177 -37zM98 0v8q104 0 152 19q63 25 63 100v598h-219v37h219v493q0 78 -63 105t-144 31v8h635q195 0 378 -89q103 -50 183 -127t133 -205q52 -128 52 -294
t-69 -302q-68 -136 -182 -217q-231 -165 -536 -165h-602z" />
    <glyph glyph-name="Ntilde" unicode="&#xd1;" horiz-adv-x="1576" 
d="M700 1792q86 0 173 -55t131 -56q86 0 126 33t76 107l8 -2q-28 -98 -92 -170t-148 -72t-138 29q-54 28 -98 56t-96 28t-93 -34t-84 -110l-8 4q33 96 95 169t148 73zM324 354q0 -221 73 -280q25 -18 105 -41t114 -25v-8h-573v8q29 4 97 24t87 29q74 41 74 283v799
q0 109 -65 162q-35 29 -105 55t-123 33v6h373l936 -1151v809q0 233 -70 274q-29 17 -103 37t-116 23v8h565v-8q-27 -1 -95 -19t-87 -31q-72 -43 -72 -272v-1087h-14l-1001 1232v-860z" />
    <glyph glyph-name="Ograve" unicode="&#xd2;" horiz-adv-x="1556" 
d="M563 1840q-1 28 19 50t53 21q70 0 121 -88q74 -125 202 -312l-8 -6q-92 71 -189 137t-126 88t-40 33q-11 9 -21 29t-11 48zM779 -14q245 0 374 198t129 524q0 324 -136 514t-368 191q-232 -1 -367 -195q-137 -194 -137 -516t130 -520q130 -196 375 -196zM782 -31
q-286 0 -493 201q-207 200 -207 524t202 530t494 206t510 -216q86 -86 136 -223t51 -282q0 -334 -203 -537q-204 -203 -490 -203z" />
    <glyph glyph-name="Oacute" unicode="&#xd3;" horiz-adv-x="1556" 
d="M920 1911q33 0 52 -22q19 -23 19 -55t-23 -61t-147 -112q-125 -84 -217 -156l-8 6q129 186 203 312q51 88 121 88zM779 -14q245 0 374 198t129 524q0 324 -136 514t-368 191q-232 -1 -367 -195q-137 -194 -137 -516t130 -520q130 -196 375 -196zM782 -31q-286 0 -493 201
q-207 200 -207 524t202 530t494 206t510 -216q86 -86 136 -223t51 -282q0 -334 -203 -537q-204 -203 -490 -203z" />
    <glyph glyph-name="Ocircumflex" unicode="&#xd4;" horiz-adv-x="1556" 
d="M779 1915q34 0 49 -8q16 -8 34 -35t92 -150t133 -211l-8 -8l-299 275l-305 -273l-8 6q68 102 141 218q72 116 90 143t32 35t49 8zM779 -14q245 0 374 198t129 524q0 324 -136 514t-368 191q-232 -1 -367 -195q-137 -194 -137 -516t130 -520q130 -196 375 -196zM782 -31
q-286 0 -493 201q-207 200 -207 524t202 530t494 206t510 -216q86 -86 136 -223t51 -282q0 -334 -203 -537q-204 -203 -490 -203z" />
    <glyph glyph-name="Otilde" unicode="&#xd5;" horiz-adv-x="1556" 
d="M641 1792q86 0 173 -55t130 -56q86 0 127 33t76 107l8 -2q-27 -98 -91 -170t-149 -72q-84 0 -139 29q-55 28 -98 56t-95 28t-93 -34t-84 -110l-9 4q33 96 95 169t149 73zM779 -14q245 0 374 198t129 524q0 324 -136 514t-368 191q-232 -1 -367 -195q-137 -194 -137 -516
t130 -520q130 -196 375 -196zM782 -31q-286 0 -493 201q-207 200 -207 524t202 530t494 206t510 -216q86 -86 136 -223t51 -282q0 -334 -203 -537q-204 -203 -490 -203z" />
    <glyph glyph-name="Odieresis" unicode="&#xd6;" horiz-adv-x="1556" 
d="M994 1550q-44 0 -74 30t-29 72q0 42 30 72q29 30 73 31q44 0 74 -29q30 -28 30 -70t-30 -74t-74 -32zM561 1550q-43 0 -74 30t-31 72t32 72q30 30 73 31q43 0 74 -29q31 -28 31 -70t-31 -74t-74 -32zM779 -14q245 0 374 198t129 524q0 324 -136 514t-368 191
q-232 -1 -367 -195q-137 -194 -137 -516t130 -520q130 -196 375 -196zM782 -31q-286 0 -493 201q-207 200 -207 524t202 530t494 206t510 -216q86 -86 136 -223t51 -282q0 -334 -203 -537q-204 -203 -490 -203z" />
    <glyph glyph-name="multiply" unicode="&#xd7;" horiz-adv-x="1138" 
d="M152 74l-39 39l417 415l-417 418l43 41l415 -416l416 416l39 -39l-416 -416l416 -415l-41 -43l-418 418z" />
    <glyph glyph-name="Oslash" unicode="&#xd8;" horiz-adv-x="1556" 
d="M778 1413q-231 -1 -367 -195t-137 -538q1 -252 91 -432l821 909q-137 256 -408 256zM769 -14q255 0 384 198t129 518q0 252 -84 431l-821 -910q137 -237 392 -237zM82 694q0 324 202 530t485 206t491 -191l194 215l21 -14l-197 -217q94 -91 145 -229t52 -285
q0 -334 -203 -537t-502 -203q-262 0 -461 181l-194 -218l-21 17l197 217q-209 204 -209 528z" />
    <glyph glyph-name="Ugrave" unicode="&#xd9;" horiz-adv-x="1579" 
d="M606 1840q0 28 20 50t52 21q70 0 121 -88q74 -125 202 -312l-8 -6q-92 71 -189 137t-126 88t-40 33q-12 9 -22 29t-10 48zM287 1253q0 123 -207 138v8h586v-8q-82 -4 -148 -27q-63 -20 -63 -100v-887q0 -150 98 -245t298 -95q201 0 319 92t118 256v676q0 236 -69 274
q-88 49 -224 56v8h570v-8q-31 1 -96 -15t-91 -33q-68 -39 -67 -270v-692q0 -178 -139 -296q-140 -118 -376 -118t-373 108q-136 108 -136 251v927z" />
    <glyph glyph-name="Uacute" unicode="&#xda;" horiz-adv-x="1579" 
d="M1001 1911q33 0 53 -22q20 -23 19 -55q0 -32 -23 -61t-147 -112q-125 -84 -217 -156l-8 6q129 186 203 312q51 88 120 88zM287 1253q0 123 -207 138v8h586v-8q-82 -4 -148 -27q-63 -20 -63 -100v-887q0 -150 98 -245t298 -95q201 0 319 92t118 256v676q0 236 -69 274
q-88 49 -224 56v8h570v-8q-31 1 -96 -15t-91 -33q-68 -39 -67 -270v-692q0 -178 -139 -296q-140 -118 -376 -118t-373 108q-136 108 -136 251v927z" />
    <glyph glyph-name="Ucircumflex" unicode="&#xdb;" horiz-adv-x="1579" 
d="M847 1915q34 0 49 -8q16 -8 34 -35t92 -150t133 -211l-8 -8l-299 275l-305 -273l-8 6q68 102 141 218q72 116 90 143t32 35t49 8zM287 1253q0 123 -207 138v8h586v-8q-82 -4 -148 -27q-63 -20 -63 -100v-887q0 -150 98 -245t298 -95q201 0 319 92t118 256v676
q0 236 -69 274q-88 49 -224 56v8h570v-8q-31 1 -96 -15t-91 -33q-68 -39 -67 -270v-692q0 -178 -139 -296q-140 -118 -376 -118t-373 108q-136 108 -136 251v927z" />
    <glyph glyph-name="Udieresis" unicode="&#xdc;" horiz-adv-x="1579" 
d="M1045 1548q-43 0 -73 30t-30 72t30 72t74 31q44 0 73 -29q30 -28 30 -70t-30 -74t-74 -32zM612 1548q-44 0 -74 30t-30 72t31 72t73 31q42 0 74 -29q31 -28 31 -70t-31 -74t-74 -32zM287 1253q0 123 -207 138v8h586v-8q-82 -4 -148 -27q-63 -20 -63 -100v-887
q0 -150 98 -245t298 -95q201 0 319 92t118 256v676q0 236 -69 274q-88 49 -224 56v8h570v-8q-31 1 -96 -15t-91 -33q-68 -39 -67 -270v-692q0 -178 -139 -296q-140 -118 -376 -118t-373 108q-136 108 -136 251v927z" />
    <glyph glyph-name="Yacute" unicode="&#xdd;" horiz-adv-x="1200" 
d="M772 1911q33 0 52 -22q20 -23 20 -55t-25 -62t-147 -113q-123 -82 -215 -154l-8 6q129 186 202 312q51 88 121 88zM262 0v8q127 6 168 23q63 25 64 102v426q0 12 -48 127q-150 301 -280 533q-57 100 -123 139q-47 29 -113 33v8h598v-8q-225 -12 -225 -70q0 -33 352 -682
q373 606 373 651t-84 70t-178 31v8h508v-8q-29 0 -91 -24t-120 -105q-131 -182 -346 -580q-55 -102 -55 -209v-330q0 -77 64 -103t167 -32v-8h-631z" />
    <glyph glyph-name="Thorn" unicode="&#xde;" horiz-adv-x="1226" 
d="M479 383h125q90 0 159 29q69 30 103 68q84 97 84 237q0 365 -307 364h-164v-698zM109 0v8q102 6 141 21q63 25 63 102v1126q0 74 -63 99q-80 31 -150 35v8h592v-8q-90 -4 -149 -25q-63 -20 -64 -98v-172h275q156 0 278 -91t121 -237q0 -193 -144 -296t-345 -103h-185
v-240q0 -78 64 -102q39 -14 166 -19v-8h-600z" />
    <glyph glyph-name="germandbls" unicode="&#xdf;" horiz-adv-x="1179" 
d="M1118 275q0 -117 -85 -211t-211 -93t-196 61t-71 150q0 121 92 121q72 0 72 -90q-1 -27 -21 -65t-20 -64t43 -62t123 -36t131 63t51 139t-38 130q-38 52 -163 151q-197 152 -196 281q0 55 24 98q25 43 72 93t68 83q51 84 51 206t-62 204q-62 80 -166 79q-127 0 -183 -104
t-64 -342v-1067h-287v8q66 4 90 12q55 18 55 95v776h-211v29h211v65q0 279 125 412t291 133q129 0 217 -72t88 -206t-106 -232q-16 -14 -58 -46t-58 -51q-15 -19 -15 -57t39 -96q38 -58 160 -156t165 -160t43 -179z" />
    <glyph glyph-name="agrave" unicode="&#xe0;" horiz-adv-x="948" 
d="M258 1417q0 37 20 59t52 21q70 0 121 -88q74 -125 202 -311l-8 -6q-92 70 -206 148t-148 109q-33 31 -33 68zM383 31q139 0 227 108l8 418q-108 -45 -135 -53q-129 -49 -190 -117t-62 -176q0 -180 152 -180zM786 -16q-129 0 -168 137h-6q-55 -69 -138 -105t-177 -36
t-158 55q-63 55 -63 159t52 160t120 82t186 65q117 39 184 77l-2 139q0 219 -184 219q-53 0 -94 -20t-55 -42l16 -159q0 -33 -29 -56t-71 -22q-70 0 -70 92t95 157q94 64 234 64t223 -61t83 -242l-10 -459q0 -123 88 -122q92 0 108 170h13q-11 -136 -55 -194t-122 -58z" />
    <glyph glyph-name="aacute" unicode="&#xe1;" horiz-adv-x="948" 
d="M614 1497q33 0 53 -21q19 -22 19 -55t-22 -61t-148 -112q-125 -84 -217 -156l-8 6q129 186 203 311q51 88 120 88zM383 31q139 0 227 108l8 418q-108 -45 -135 -53q-129 -49 -190 -117t-62 -176q0 -180 152 -180zM786 -16q-129 0 -168 137h-6q-55 -69 -138 -105t-177 -36
t-158 55q-63 55 -63 159t52 160t120 82t186 65q117 39 184 77l-2 139q0 219 -184 219q-53 0 -94 -20t-55 -42l16 -159q0 -33 -29 -56t-71 -22q-70 0 -70 92t95 157q94 64 234 64t223 -61t83 -242l-10 -459q0 -123 88 -122q92 0 108 170h13q-11 -136 -55 -194t-122 -58z" />
    <glyph glyph-name="acircumflex" unicode="&#xe2;" horiz-adv-x="948" 
d="M474 1501q34 0 49 -8t33 -35q18 -28 93 -150q74 -122 133 -210l-8 -8l-299 274l-305 -272l-8 6q77 115 145 224t86 136q19 27 33 35t48 8zM383 31q139 0 227 108l8 418q-108 -45 -135 -53q-129 -49 -190 -117t-62 -176q0 -180 152 -180zM786 -16q-129 0 -168 137h-6
q-55 -69 -138 -105t-177 -36t-158 55q-63 55 -63 159t52 160t120 82t186 65q117 39 184 77l-2 139q0 219 -184 219q-53 0 -94 -20t-55 -42l16 -159q0 -33 -29 -56t-71 -22q-70 0 -70 92t95 157q94 64 234 64t223 -61t83 -242l-10 -459q0 -123 88 -122q92 0 108 170h13
q-11 -136 -55 -194t-122 -58z" />
    <glyph glyph-name="atilde" unicode="&#xe3;" horiz-adv-x="948" 
d="M336 1370q86 0 173 -55t130 -55q86 0 127 32t76 107l8 -2q-28 -98 -92 -170t-148 -72t-139 29q-55 28 -98 56t-95 28t-94 -34t-84 -110l-8 4q33 96 95 169q63 73 149 73zM383 31q139 0 227 108l8 418q-108 -45 -135 -53q-129 -49 -190 -117t-62 -176q0 -180 152 -180z
M786 -16q-129 0 -168 137h-6q-55 -69 -138 -105t-177 -36t-158 55q-63 55 -63 159t52 160t120 82t186 65q117 39 184 77l-2 139q0 219 -184 219q-53 0 -94 -20t-55 -42l16 -159q0 -33 -29 -56t-71 -22q-70 0 -70 92t95 157q94 64 234 64t223 -61t83 -242l-10 -459
q0 -123 88 -122q92 0 108 170h13q-11 -136 -55 -194t-122 -58z" />
    <glyph glyph-name="adieresis" unicode="&#xe4;" horiz-adv-x="948" 
d="M689 1122q-44 0 -74 30q-29 30 -29 72t30 72t73 31q44 0 74 -29q30 -28 30 -70t-30 -74t-74 -32zM256 1122q-43 0 -74 30q-30 30 -30 72t30 72t74 31q43 0 74 -29q30 -28 30 -70t-30 -74t-74 -32zM383 31q139 0 227 108l8 418q-108 -45 -135 -53q-129 -49 -190 -117
t-62 -176q0 -180 152 -180zM786 -16q-129 0 -168 137h-6q-55 -69 -138 -105t-177 -36t-158 55q-63 55 -63 159t52 160t120 82t186 65q117 39 184 77l-2 139q0 219 -184 219q-53 0 -94 -20t-55 -42l16 -159q0 -33 -29 -56t-71 -22q-70 0 -70 92t95 157q94 64 234 64t223 -61
t83 -242l-10 -459q0 -123 88 -122q92 0 108 170h13q-11 -136 -55 -194t-122 -58z" />
    <glyph glyph-name="aring" unicode="&#xe5;" horiz-adv-x="948" 
d="M473 1098q65 0 97 53t32 136t-32 137t-96 54t-97 -52q-33 -54 -33 -138q0 -190 129 -190zM472 1087q-102 1 -162 55t-60 144t63 146t161 57q98 0 160 -55q62 -56 62 -146t-60 -146t-164 -55zM383 31q139 0 227 108l8 418q-108 -45 -135 -53q-129 -49 -190 -117t-62 -176
q0 -180 152 -180zM786 -16q-129 0 -168 137h-6q-55 -69 -138 -105t-177 -36t-158 55q-63 55 -63 159t52 160t120 82t186 65q117 39 184 77l-2 139q0 219 -184 219q-53 0 -94 -20t-55 -42l16 -159q0 -33 -29 -56t-71 -22q-70 0 -70 92t95 157q94 64 234 64t223 -61t83 -242
l-10 -459q0 -123 88 -122q92 0 108 170h13q-11 -136 -55 -194t-122 -58z" />
    <glyph glyph-name="ae" unicode="&#xe6;" horiz-adv-x="1431" 
d="M1018 938q-110 0 -180 -106t-74 -291l461 4q-1 117 -15 197t-62 138t-130 58zM383 16q125 0 227 125l8 408q-190 -55 -288 -131t-99 -207q0 -87 39 -141t113 -54zM129 729q0 92 94 157q94 64 209 64t188 -26t111 -101q111 127 291 127t268 -110t88 -297v-19h-614v-20
q0 -211 80 -341t237 -130q113 0 177 45t128 147l11 -6q-53 -113 -147 -176t-214 -63q-250 0 -368 208q-126 -208 -359 -208q-106 0 -170 55q-63 55 -63 159t52 160q52 54 120 80t186 67q119 41 182 77v153q0 205 -186 205q-53 0 -93 -20t-54 -42l16 -159q0 -33 -29 -56
t-71 -22q-70 0 -70 92z" />
    <glyph glyph-name="ccedilla" unicode="&#xe7;" horiz-adv-x="862" 
d="M289 -467v14q279 0 278 142q0 86 -174 86v213q-159 30 -243 158t-84 323t119 338q120 143 315 143q141 0 223 -70t82 -171q0 -100 -92 -101q-33 0 -65 22t-32 62t13 80q12 39 12 55q-23 113 -141 113t-196 -119q-79 -119 -79 -323t81 -335q81 -132 216 -132q100 0 170 41
t137 145l7 -4q-115 -233 -357 -233q-37 0 -69 6v-105q285 0 284 -155q0 -124 -125 -160q-112 -33 -280 -33z" />
    <glyph glyph-name="egrave" unicode="&#xe8;" horiz-adv-x="890" 
d="M616 1092q-92 70 -189 136q-132 90 -164 120q-32 29 -33 68q-2 38 18 60t53 21q70 0 121 -88q74 -125 203 -311zM477 938q-111 0 -181 -106t-73 -291l461 4q0 117 -14 197t-62 138t-131 58zM496 -20q-211 0 -321 139q-109 139 -109 342t111 346q112 143 298 143t275 -111
q88 -112 88 -300v-15h-615v-20q0 -211 80 -341t238 -130q113 0 177 45t128 147l10 -6q-53 -113 -146 -176t-214 -63z" />
    <glyph glyph-name="eacute" unicode="&#xe9;" horiz-adv-x="890" 
d="M627 1497q33 1 52 -21t19 -55t-23 -62t-147 -112q-125 -83 -217 -155l-8 6q129 186 203 311q51 88 121 88zM477 938q-111 0 -181 -106t-73 -291l461 4q0 117 -14 197t-62 138t-131 58zM496 -20q-211 0 -321 139q-109 139 -109 342t111 346q112 143 298 143t275 -111
q88 -112 88 -300v-15h-615v-20q0 -211 80 -341t238 -130q113 0 177 45t128 147l10 -6q-53 -113 -146 -176t-214 -63z" />
    <glyph glyph-name="ecircumflex" unicode="&#xea;" horiz-adv-x="890" 
d="M445 1501q33 0 49 -8t34 -35q18 -28 92 -150t134 -210l-9 -8l-299 274l-305 -272l-8 6q77 115 145 224t86 136t32 35t49 8zM477 938q-111 0 -181 -106t-73 -291l461 4q0 117 -14 197t-62 138t-131 58zM496 -20q-211 0 -321 139q-109 139 -109 342t111 346
q112 143 298 143t275 -111q88 -112 88 -300v-15h-615v-20q0 -211 80 -341t238 -130q113 0 177 45t128 147l10 -6q-53 -113 -146 -176t-214 -63z" />
    <glyph glyph-name="edieresis" unicode="&#xeb;" horiz-adv-x="890" 
d="M569 1224q0 42 30 72t74 31q43 0 73 -29q30 -28 30 -70t-30 -74t-73 -32q-44 0 -74 30t-30 72zM135 1224q0 42 31 72t74 31q44 0 74 -29q30 -28 30 -70t-30 -74t-74 -32q-43 0 -74 30t-31 72zM477 938q-111 0 -181 -106t-73 -291l461 4q0 117 -14 197t-62 138t-131 58z
M496 -20q-211 0 -321 139q-109 139 -109 342t111 346q112 143 298 143t275 -111q88 -112 88 -300v-15h-615v-20q0 -211 80 -341t238 -130q113 0 177 45t128 147l10 -6q-53 -113 -146 -176t-214 -63z" />
    <glyph glyph-name="igrave" unicode="&#xec;" horiz-adv-x="552" 
d="M-16 1426q0 28 19 50t52 21q70 0 121 -88q74 -125 203 -311l-8 -6q-91 70 -189 136t-127 90q-29 22 -40 32t-21 29t-10 47zM74 0v8q66 4 90 12q55 18 55 95v649q0 63 -55 100t-121 41v8l307 23l10 -10v-799q0 -70 56 -96q55 -20 90 -23v-8h-432z" />
    <glyph glyph-name="iacute" unicode="&#xed;" horiz-adv-x="552" 
d="M461 1497q33 1 52 -21t19 -55t-23 -62t-147 -112q-125 -83 -217 -155l-8 6q129 186 203 311q51 88 121 88zM74 0v8q66 4 90 12q55 18 55 95v649q0 63 -55 100t-121 41v8l307 23l10 -10v-799q0 -70 56 -96q55 -20 90 -23v-8h-432z" />
    <glyph glyph-name="icircumflex" unicode="&#xee;" horiz-adv-x="552" 
d="M74 0v8q66 4 90 12q55 18 55 95v649q0 63 -55 100t-121 41v8l307 23l10 -10v-799q0 -70 56 -96q55 -20 90 -23v-8h-432zM258 1501q61 0 80 -41q12 -25 180 -366l-8 -7l-254 279l-256 -279l-8 7l182 362q23 45 84 45z" />
    <glyph glyph-name="idieresis" unicode="&#xef;" horiz-adv-x="552" 
d="M74 0v8q66 4 90 12q55 18 55 95v649q0 63 -55 100t-121 41v8l307 23l10 -10v-799q0 -70 56 -96q55 -20 90 -23v-8h-432zM445 1122q-43 0 -73 30t-30 72t30 72t74 31q44 0 73 -29q30 -28 30 -70t-30 -74t-74 -32zM65 1122q-43 0 -73 30t-31 72q0 42 31 72q32 30 74 31
q42 0 73 -29q31 -28 31 -70t-31 -74t-74 -32z" />
    <glyph glyph-name="eth" unicode="&#xf0;" horiz-adv-x="1075" 
d="M513 2q138 0 211 138t73 342t-76 324q-75 118 -215 118t-214 -124t-75 -333q0 -209 79 -337t217 -128zM524 -29q-194 0 -328 128q-134 127 -134 357t126 363q127 133 328 133q88 0 161 -39t109 -96l9 2q-37 311 -195 510l-227 -151l-19 30l221 148q-66 80 -159 141l8 29
q106 -53 201 -137l182 122l18 -30l-174 -117q307 -291 307 -772q0 -360 -183 -527q-101 -94 -251 -94z" />
    <glyph glyph-name="ntilde" unicode="&#xf1;" horiz-adv-x="1163" 
d="M444 1370q86 0 173 -55t131 -55q86 0 126 32t76 107l8 -2q-28 -98 -92 -170t-148 -72t-138 29q-54 28 -98 56t-96 28t-93 -34t-84 -110l-8 4q33 96 95 169t148 73zM70 0v8q66 4 90 12q57 18 57 95v649q0 70 -50 104t-106 37v8l289 23l8 -8v-166h4l46 46q109 112 193 132
q42 10 93 10q139 0 208 -86t69 -237v-504q0 -70 48 -91t97 -24v-8h-457v8q72 4 105 12q63 18 63 95v540q0 103 -57 163t-134 60t-157 -38q-80 -39 -121 -111v-604q0 -68 62 -94q43 -18 104 -23v-8h-454z" />
    <glyph glyph-name="ograve" unicode="&#xf2;" horiz-adv-x="1028" 
d="M299 1417q0 37 19 59t53 21q70 0 121 -88q74 -125 202 -311l-8 -6q-92 70 -206 148t-148 109q-33 31 -33 68zM516 -14q139 0 215 141t76 344q0 262 -121 394q-68 73 -174 73t-174 -77q-70 -77 -94 -174t-23 -220q0 -277 126 -410q69 -71 169 -71zM965 470
q0 -208 -125 -352q-126 -144 -322 -145q-196 1 -325 135t-129 351t125 354q126 137 328 137t325 -136t123 -344z" />
    <glyph glyph-name="oacute" unicode="&#xf3;" horiz-adv-x="1028" 
d="M655 1497q33 0 53 -21q19 -22 19 -55t-22 -61t-148 -112q-125 -84 -217 -156l-8 6q129 186 203 311q51 88 120 88zM516 -14q139 0 215 141t76 344q0 262 -121 394q-68 73 -174 73t-174 -77q-70 -77 -94 -174t-23 -220q0 -277 126 -410q69 -71 169 -71zM965 470
q0 -208 -125 -352q-126 -144 -322 -145q-196 1 -325 135t-129 351t125 354q126 137 328 137t325 -136t123 -344z" />
    <glyph glyph-name="ocircumflex" unicode="&#xf4;" horiz-adv-x="1028" 
d="M515 1501q34 0 49 -8q16 -8 34 -35q18 -28 92 -150t133 -210l-8 -8l-299 274l-305 -272l-8 6q77 115 145 224t86 136t32 35t49 8zM516 -14q139 0 215 141t76 344q0 262 -121 394q-68 73 -174 73t-174 -77q-70 -77 -94 -174t-23 -220q0 -277 126 -410q69 -71 169 -71z
M965 470q0 -208 -125 -352q-126 -144 -322 -145q-196 1 -325 135t-129 351t125 354q126 137 328 137t325 -136t123 -344z" />
    <glyph glyph-name="otilde" unicode="&#xf5;" horiz-adv-x="1028" 
d="M376 1370q86 0 174 -55q87 -55 130 -55q86 0 127 32t76 107l8 -2q-27 -98 -91 -170t-149 -72q-84 0 -139 29q-55 28 -98 56t-95 28q-51 0 -93 -34t-85 -110l-8 4q33 96 95 169t148 73zM516 -14q139 0 215 141t76 344q0 262 -121 394q-68 73 -174 73t-174 -77
q-70 -77 -94 -174t-23 -220q0 -277 126 -410q69 -71 169 -71zM965 470q0 -208 -125 -352q-126 -144 -322 -145q-196 1 -325 135t-129 351t125 354q126 137 328 137t325 -136t123 -344z" />
    <glyph glyph-name="odieresis" unicode="&#xf6;" horiz-adv-x="1028" 
d="M730 1122q-44 0 -74 30t-30 72t30 72t74 31q44 0 74 -29q30 -28 30 -70t-30 -74t-74 -32zM297 1122q-43 0 -74 30t-31 72t32 72q30 30 73 31q43 0 74 -29q31 -28 31 -70t-32 -74q-30 -32 -73 -32zM516 -14q139 0 215 141t76 344q0 262 -121 394q-68 73 -174 73t-174 -77
q-70 -77 -94 -174t-23 -220q0 -277 126 -410q69 -71 169 -71zM965 470q0 -208 -125 -352q-126 -144 -322 -145q-196 1 -325 135t-129 351t125 354q126 137 328 137t325 -136t123 -344z" />
    <glyph glyph-name="divide" unicode="&#xf7;" horiz-adv-x="1138" 
d="M76 502v59h987v-59h-987zM569 741q-41 0 -67 27t-27 68q0 40 28 68q27 28 67 28t68 -28t28 -68t-28 -67q-28 -28 -69 -28zM569 131q-41 0 -67 27q-26 28 -27 68q0 40 28 68q27 28 67 28t68 -28t28 -68t-28 -68t-69 -27z" />
    <glyph glyph-name="oslash" unicode="&#xf8;" horiz-adv-x="1028" 
d="M516 938q-108 0 -178 -77t-94 -174t-23 -241q0 -144 49 -266l486 574q-74 184 -240 184zM506 -14q148 0 225 141q76 141 76 317t-41 287l-485 -575q77 -170 225 -170zM508 950q194 0 315 -116l150 176l16 -15l-151 -178q127 -137 127 -346t-125 -353t-338 -145
q-164 0 -285 109l-113 -133l-18 14l115 135q-137 138 -137 358t125 357t319 137z" />
    <glyph glyph-name="ugrave" unicode="&#xf9;" horiz-adv-x="1126" 
d="M348 1417q0 37 20 59t52 21q70 0 121 -88q74 -125 202 -311l-8 -6q-92 70 -206 148t-148 109q-33 31 -33 68zM443 -23q-123 1 -188 91t-65 243v457q0 66 -47 98t-106 35v10l289 25l10 -10v-668q0 -104 52 -164t130 -61q174 0 266 137v604q0 68 -55 103q-31 20 -141 24v10
l330 25l10 -10v-779q0 -61 53 -98q31 -20 96 -24v-9l-276 -18l-15 14v125h-6q-90 -90 -152 -125t-185 -35z" />
    <glyph glyph-name="uacute" unicode="&#xfa;" horiz-adv-x="1126" 
d="M705 1497q33 1 52 -21t19 -55t-22 -61t-147 -112q-126 -84 -218 -156l-8 6q129 186 203 311q51 88 121 88zM443 -23q-123 1 -188 91t-65 243v457q0 66 -47 98t-106 35v10l289 25l10 -10v-668q0 -104 52 -164t130 -61q174 0 266 137v604q0 68 -55 103q-31 20 -141 24v10
l330 25l10 -10v-779q0 -61 53 -98q31 -20 96 -24v-9l-276 -18l-15 14v125h-6q-90 -90 -152 -125t-185 -35z" />
    <glyph glyph-name="ucircumflex" unicode="&#xfb;" horiz-adv-x="1126" 
d="M564 1501q34 0 49 -8t33 -35q18 -28 93 -150q74 -122 133 -210l-8 -8l-299 274l-305 -272l-8 6q77 115 145 224t86 136q19 27 33 35t48 8zM443 -23q-123 1 -188 91t-65 243v457q0 66 -47 98t-106 35v10l289 25l10 -10v-668q0 -104 52 -164t130 -61q174 0 266 137v604
q0 68 -55 103q-31 20 -141 24v10l330 25l10 -10v-779q0 -61 53 -98q31 -20 96 -24v-9l-276 -18l-15 14v125h-6q-90 -90 -152 -125t-185 -35z" />
    <glyph glyph-name="udieresis" unicode="&#xfc;" horiz-adv-x="1126" 
d="M761 1122q-44 0 -74 30t-30 72t30 72t74 31q44 0 74 -29q29 -28 29 -70t-30 -74t-73 -32zM223 1224q0 42 31 72t74 31q44 0 74 -29q30 -28 30 -70t-30 -74t-74 -32q-43 0 -74 30t-31 72zM443 -23q-123 1 -188 91t-65 243v457q0 66 -47 98t-106 35v10l289 25l10 -10v-668
q0 -104 52 -164t130 -61q174 0 266 137v604q0 68 -55 103q-31 20 -141 24v10l330 25l10 -10v-779q0 -61 53 -98q31 -20 96 -24v-9l-276 -18l-15 14v125h-6q-90 -90 -152 -125t-185 -35z" />
    <glyph glyph-name="yacute" unicode="&#xfd;" horiz-adv-x="917" 
d="M655 1497q33 0 53 -21q19 -22 19 -55t-22 -61t-148 -112q-125 -84 -217 -156l-8 6q129 186 203 311q51 88 120 88zM614 924h351v-9q-31 -5 -79 -37t-67 -75l-254 -606q-23 -55 -53 -133q-125 -322 -224 -438q-75 -87 -171 -87q-47 0 -92 31t-45 81t29 83q30 33 71 33
q96 0 96 -91v-90q133 18 285 398q-94 246 -210 512t-136 317q-35 88 -142 102v9h402v-11q-119 -6 -119 -47l14 -43q16 -47 120 -285t149 -356h2q255 609 258 660q0 24 -69 46t-116 27v9z" />
    <glyph glyph-name="thorn" unicode="&#xfe;" horiz-adv-x="1120" 
d="M590 -12q131 0 216 127t85 323t-79 323q-80 126 -226 126t-244 -111v-602q22 -68 86 -127t162 -59zM35 -463v8q76 4 110 17q53 16 54 106v1680q-1 74 -51 108t-115 41v8l299 23l8 -8v-721l6 -2q141 154 279 153q182 0 306 -137t124 -351q-1 -214 -141 -350t-328 -137
q-150 0 -236 64h-8v-367q0 -76 59 -100t136 -27v-8h-502z" />
    <glyph glyph-name="ydieresis" unicode="&#xff;" horiz-adv-x="917" 
d="M716 1122q-44 0 -74 30t-30 72t30 72t74 31q44 0 74 -29q30 -28 30 -70t-30 -74t-74 -32zM178 1224q0 42 31 72t74 31q43 0 73 -29q30 -28 31 -70q-1 -42 -31 -74t-73 -32t-74 30t-31 72zM614 924h351v-9q-31 -5 -79 -37t-67 -75l-254 -606q-23 -55 -53 -133
q-125 -322 -224 -438q-75 -87 -171 -87q-47 0 -92 31t-45 81t29 83q30 33 71 33q96 0 96 -91v-90q133 18 285 398q-94 246 -210 512t-136 317q-35 88 -142 102v9h402v-11q-119 -6 -119 -47l14 -43q16 -47 120 -285t149 -356h2q255 609 258 660q0 24 -69 46t-116 27v9z" />
    <glyph glyph-name="dotlessi" unicode="&#x131;" horiz-adv-x="552" 
d="M74 0v8q66 4 90 12q55 18 55 95v649q0 63 -55 100t-121 41v8l307 23l10 -10v-799q0 -70 56 -96q55 -20 90 -23v-8h-432z" />
    <glyph glyph-name="Lslash" unicode="&#x141;" horiz-adv-x="1251" 
d="M109 0v8q102 6 141 21q63 25 63 102v504l-192 -70l-12 35l204 74v575q0 74 -63 103q-80 35 -141 39v8h583v-8q-76 -5 -144 -27t-69 -104v-525l293 107l14 -35l-307 -113v-489q0 -131 38 -160t208 -29q289 0 338 56q39 44 107 158t79 157h8l-32 -387h-1116z" />
    <glyph glyph-name="lslash" unicode="&#x142;" horiz-adv-x="600" 
d="M86 0v8q66 4 90 12q55 18 55 95v518l-186 -68l-12 35l198 72v671q0 78 -50 113t-146 43v8l332 21l8 -8v-797l184 68l14 -35l-198 -72v-563q0 -72 51 -94q33 -14 94 -19v-8h-434z" />
    <glyph glyph-name="OE" unicode="&#x152;" horiz-adv-x="2103" 
d="M899 14q119 0 155 30t36 85v1069q0 184 -240 184q-281 0 -425 -187t-144 -484t172 -497t446 -200zM827 0q-197 0 -377 89q-103 50 -184 127q-80 77 -132 205t-52 294t69 302q125 245 433 340q137 42 284 42h1078v-309h-11q-19 80 -81 178t-124 106t-192 8h-283v-649h224
q53 1 92 15t46 21l32 32q39 39 57 200h10v-563h-10q-4 49 -23 121q-18 72 -36 91q-19 18 -31 30t-49 24t-88 13h-224v-514q0 -123 44 -155t161 -32h173q55 0 73 2t74 7q77 7 112 42t82 139t72 177h10l-26 -383h-1203z" />
    <glyph glyph-name="oe" unicode="&#x153;" horiz-adv-x="1630" 
d="M1217 938q-111 0 -181 -105q-69 -106 -73 -292l460 4q0 117 -14 197t-62 138t-130 58zM516 -14q139 0 215 141t76 344q0 262 -121 394q-68 73 -174 73t-174 -77q-70 -77 -94 -174t-23 -220q0 -277 126 -410q69 -71 169 -71zM502 -27q-180 1 -309 135t-129 351t125 354
q126 137 344 137t350 -200q125 200 321 200t285 -111q88 -112 88 -296v-19h-614v-20q-1 -211 79 -341t238 -130q114 0 178 45t127 147l10 -6q-53 -113 -146 -176t-214 -63q-238 0 -354 202q-137 -209 -379 -209z" />
    <glyph glyph-name="Scaron" unicode="&#x160;" horiz-adv-x="1069" 
d="M531 1518q-34 0 -49 8t-33 35q-19 27 -93 149t-133 211l8 8l299 -274l306 272l8 -6q-77 -115 -145 -224q-69 -109 -87 -136t-32 -35t-49 -8zM566 -25q-184 0 -367 129l-78 -124h-6l-15 466h9q168 -453 481 -452q137 0 216 87t79 214q0 188 -205 276q-240 102 -301 131
q-119 54 -177 138t-58 232t102 248q102 101 254 101q195 0 346 -125l78 125h6l10 -463h-10q-70 213 -176 329t-271 116q-106 0 -177 -74q-70 -74 -70 -166t43 -152q43 -61 119 -101t168 -79q91 -39 132 -59q156 -74 226 -150t69 -227q1 -190 -121 -305t-306 -115z" />
    <glyph glyph-name="scaron" unicode="&#x161;" horiz-adv-x="784" 
d="M388 1104q-34 0 -49 8t-33 35t-93 149q-74 122 -133 211l8 9l299 -275l305 272l8 -6q-77 -115 -145 -224t-86 -136q-19 -27 -33 -35t-48 -8zM711 252q-1 -122 -93 -201q-92 -78 -231 -78t-260 82l-39 -63h-8l-10 307h10q31 -131 118 -221q86 -90 200 -90t172 62t58 146
t-56 125q-58 41 -197 83t-210 104t-71 180q0 117 77 190q77 72 209 72t224 -61l39 63h8l15 -272h-11q-25 102 -106 179q-82 77 -177 77q-96 0 -146 -53t-50 -131t47 -112t185 -77q16 -6 24 -8q139 -45 209 -113t70 -190z" />
    <glyph glyph-name="Ydieresis" unicode="&#x178;" horiz-adv-x="1200" 
d="M845 1550q-44 0 -74 30t-30 72t30 72t74 31q44 0 74 -29q29 -28 29 -70t-30 -74t-73 -32zM307 1652q0 42 31 72t74 31q44 0 74 -29q30 -28 30 -70t-30 -74t-74 -32q-43 0 -74 30t-31 72zM262 0v8q127 6 168 23q63 25 64 102v426q0 12 -48 127q-150 301 -280 533
q-57 100 -123 139q-47 29 -113 33v8h598v-8q-225 -12 -225 -70q0 -33 352 -682q373 606 373 651t-84 70t-178 31v8h508v-8q-29 0 -91 -24t-120 -105q-131 -182 -346 -580q-55 -102 -55 -209v-330q0 -77 64 -103t167 -32v-8h-631z" />
    <glyph glyph-name="Zcaron" unicode="&#x17d;" horiz-adv-x="1232" 
d="M613 1518q-34 0 -49 8q-16 8 -34 35t-92 149t-133 211l8 8l299 -274l306 272l8 -6q-77 -115 -145 -224q-69 -109 -87 -136t-32 -35t-49 -8zM6 0v12l995 1370h-442q-104 0 -145 -4q-90 -16 -192 -141t-120 -205h-12l43 367h1059v-13l-995 -1370h489q78 0 169 14t122 38
q68 55 131 153t98 189h13l-48 -410h-1165z" />
    <glyph glyph-name="zcaron" unicode="&#x17e;" horiz-adv-x="868" 
d="M431 1104q-34 0 -49 8q-16 8 -34 35t-92 149t-133 211l8 9l299 -275l305 272l8 -6q-77 -115 -145 -224t-86 -136t-32 -35t-49 -8zM53 0v12l592 895q-399 1 -452 -21t-95 -220h-8v258h719v-13l-590 -895q73 -2 187 -2t249 6q59 2 92 94t56 187h10l2 -301h-762z" />
    <glyph glyph-name="florin" unicode="&#x192;" horiz-adv-x="1015" 
d="M-58 -395q-118 0 -171 43t-53 97t24 85t64 31t71 -31t31 -70q0 -38 -14 -74t-27 -51q14 -18 67 -18q111 0 184 115t122 348q16 76 100 582h-217l6 28h215q29 168 78 279t135 196q113 113 266 113q86 0 153 -48t66 -112q0 -40 -24 -72t-66 -32q-40 0 -70 26t-30 77
q0 50 25 124q-14 25 -58 25q-92 0 -176 -122t-119 -333l-20 -121h258l-8 -28h-254q-74 -436 -94 -525q-63 -285 -205 -409q-141 -124 -259 -123z" />
    <glyph glyph-name="circumflex" unicode="&#x2c6;" 
d="M513 1501q34 0 49 -8q16 -8 34 -35q18 -28 92 -150t133 -210l-8 -8l-299 274l-305 -272l-8 6q77 115 145 224t86 136t32 35t49 8z" />
    <glyph glyph-name="caron" unicode="&#x2c7;" 
d="M509 1104q-34 0 -49 8q-16 8 -34 35t-92 149t-133 211l8 9l299 -275l305 272l8 -6q-77 -115 -145 -224t-86 -136t-32 -35t-49 -8z" />
    <glyph glyph-name="breve" unicode="&#x2d8;" 
d="M511 1104q-85 0 -169 88t-135 283l8 4q119 -250 297 -250t297 254l8 -2q-53 -195 -137 -286t-169 -91z" />
    <glyph glyph-name="dotaccent" unicode="&#x2d9;" 
d="M510 1225q-49 0 -84 35q-35 34 -35 82t35 84t85 36t85 -34t35 -82t-36 -84q-36 -37 -85 -37z" />
    <glyph glyph-name="ring" unicode="&#x2da;" 
d="M512 1098q66 0 98 53t31 136q0 83 -32 137t-96 54t-97 -52q-33 -54 -33 -138q0 -190 129 -190zM511 1087q-103 1 -163 55t-59 144q0 90 63 146q64 56 162 57q98 0 160 -55q62 -56 61 -146t-61 -146t-163 -55z" />
    <glyph glyph-name="ogonek" unicode="&#x2db;" 
d="M301 -298q0 88 65 150t224 148h12q-156 -154 -156 -279q0 -152 248 -172v-12q-197 2 -295 40t-98 125z" />
    <glyph glyph-name="tilde" unicode="&#x2dc;" 
d="M678 1268q86 0 127 32t76 107l8 -2q-27 -98 -91 -170t-149 -72q-84 0 -139 29q-55 28 -98 56t-95 28q-51 0 -93 -34t-85 -109l-8 4q33 96 95 169q62 72 148 72t174 -55q87 -55 130 -55z" />
    <glyph glyph-name="hungarumlaut" unicode="&#x2dd;" 
d="M870 1442q0 -32 -21 -60q-21 -27 -140 -112q-119 -84 -213 -160l-11 8q129 186 181 274t75 106q25 20 59 20t52 -22t18 -54zM119 1110l-10 8q129 186 180 274t76 106q25 20 59 20t51 -22q19 -22 19 -54t-22 -60q-22 -27 -141 -112q-118 -84 -212 -160z" />
    <glyph glyph-name="endash" unicode="&#x2013;" horiz-adv-x="1114" 
d="M102 473v90h910v-90h-910z" />
    <glyph glyph-name="emdash" unicode="&#x2014;" horiz-adv-x="1810" 
d="M102 473v90h1606v-90h-1606z" />
    <glyph glyph-name="quoteleft" unicode="&#x2018;" horiz-adv-x="339" 
d="M170 975q-80 0 -113 46t-33 133t66 178t180 149l4 -8q-78 -45 -129 -122t-57 -163h62q59 0 89 -32q29 -32 29 -74t-30 -74t-68 -33z" />
    <glyph glyph-name="quoteright" unicode="&#x2019;" horiz-adv-x="339" 
d="M190 1296q-59 0 -89 32q-29 32 -29 74t30 75q31 33 68 32q80 0 113 -46t33 -133t-66 -178q-65 -91 -180 -148l-4 8q78 45 129 122t57 162h-62z" />
    <glyph glyph-name="quotesinglbase" unicode="&#x201a;" horiz-adv-x="346" 
d="M166 12q-59 0 -89 32t-30 74t31 75t67 32q80 0 113 -46t33 -133q1 -86 -65 -178t-181 -149l-4 9q78 46 129 122t57 162h-61z" />
    <glyph glyph-name="quotedblleft" unicode="&#x201c;" horiz-adv-x="688" 
d="M518 975q-80 0 -112 46t-33 133q0 87 65 178q66 91 180 149l5 -8q-78 -45 -129 -122t-58 -163h62q59 0 89 -32q29 -32 29 -74t-30 -74t-68 -33zM170 975q-80 0 -113 46t-33 133t66 178t180 149l4 -8q-78 -45 -129 -122t-57 -163h62q59 0 89 -32q29 -32 29 -74t-30 -74
t-68 -33z" />
    <glyph glyph-name="quotedblright" unicode="&#x201d;" horiz-adv-x="688" 
d="M539 1296q-59 0 -89 32t-30 74t31 75t67 32q80 0 113 -46t33 -133t-66 -178t-180 -148l-4 8q78 45 129 122t57 162h-61zM190 1296q-59 0 -89 32q-29 32 -29 74t30 75q31 33 68 32q80 0 113 -46t33 -133t-66 -178q-65 -91 -180 -148l-4 8q78 45 129 122t57 162h-62z" />
    <glyph glyph-name="quotedblbase" unicode="&#x201e;" horiz-adv-x="694" 
d="M514 12q-59 0 -89 32t-30 74t31 75t68 32q80 0 112 -46t33 -133q1 -86 -65 -178t-181 -149l-4 9q78 46 129 122t57 162h-61zM166 12q-59 0 -89 32t-30 74t31 75t67 32q80 0 113 -46t33 -133q1 -86 -65 -178t-181 -149l-4 9q78 46 129 122t57 162h-61z" />
    <glyph glyph-name="dagger" unicode="&#x2020;" horiz-adv-x="835" 
d="M326 1065q-25 0 -73 -52t-85 -52q-36 1 -60 23t-24 60q0 55 53 56q47 0 60 -72q12 2 57 28t65 25q55 0 89 -32q-4 51 -31 159t-27 138q0 84 66 84t65 -84q1 -29 -27 -139t-32 -158q38 33 74 33t82 -26t57 -28q12 72 70 72q45 0 45 -48t-24 -70q-63 -59 -155 38
q-45 45 -65 45q-37 0 -39 -68q-43 -659 -45 -792h-10q-2 102 -47 792q-2 68 -39 68z" />
    <glyph glyph-name="daggerdbl" unicode="&#x2021;" horiz-adv-x="835" 
d="M496 1186q41 0 125 -21q14 61 67 62q45 0 45 -56q0 -61 -61 -61q-31 0 -82 30t-84 29q-37 0 -47 -75q-31 -221 -37 -342h-10q-4 100 -39 342q-10 76 -47 75q-33 1 -80 -29t-79 -30t-50 17q-19 17 -19 42t14 41t40 17q47 0 61 -62q6 1 43 11q38 10 76 10t78 -31
q-4 16 -31 87t-27 106q0 82 64 82t63 -82q1 -35 -27 -107t-30 -86q33 31 74 31zM418 10q-63 0 -64 82q0 35 28 107t30 86q-33 -31 -76 -31t-81 10t-42 10q-14 -61 -68 -61q-45 0 -45 55q0 61 62 62q31 0 82 -30t86 -30t45 76q31 221 37 342h10q4 -100 39 -342q10 -76 45 -76
t82 30t79 30t50 -18t18 -42q0 -25 -14 -41t-39 -16q-47 0 -61 61q-6 0 -43 -10t-76 -10t-78 31q4 -16 31 -87t26 -106q0 -82 -63 -82z" />
    <glyph glyph-name="bullet" unicode="&#x2022;" horiz-adv-x="819" 
d="M410 391q-100 0 -183 82q-82 82 -82 193q0 110 83 194q84 84 182 84t181 -84t83 -194t-82 -193q-82 -82 -182 -82z" />
    <glyph glyph-name="ellipsis" unicode="&#x2026;" horiz-adv-x="1595" 
d="M1358 -8q-47 0 -79 33t-32 79t33 78q33 33 79 33t79 -34q32 -34 32 -79q0 -46 -32 -78t-80 -32zM797 -8q-47 0 -79 33t-32 79t33 78q33 33 79 33t79 -34t33 -79q0 -46 -34 -78q-32 -32 -79 -32zM236 -8q-47 0 -79 33t-32 79t33 78q33 33 79 33q47 0 79 -34t32 -79
q0 -46 -32 -78t-80 -32z" />
    <glyph glyph-name="perthousand" unicode="&#x2030;" horiz-adv-x="2473" 
d="M432 -197l-29 17l879 1585l31 -16zM2012 -16q83 0 137 86q55 86 55 216t-50 218t-138 88q-89 0 -136 -89t-47 -217t48 -215t131 -87zM2010 -29q-124 0 -214 82q-90 83 -90 223t98 235t218 95t215 -81t96 -244q1 -129 -99 -219t-224 -91zM1446 286q0 130 -49 218t-138 88
t-137 -89t-47 -217t49 -215t131 -87t137 86t54 216zM1252 -29q-124 0 -214 82q-90 83 -90 223t98 235t218 95t216 -81t95 -227q0 -146 -99 -237q-100 -90 -224 -90zM452 1255q-88 0 -136 -87t-48 -217t48 -216t133 -86q86 0 138 83t52 217t-49 220t-138 86zM446 635
q-123 0 -214 82t-91 223q-1 142 97 236t218 94t216 -82t96 -244q0 -127 -100 -218t-222 -91z" />
    <glyph glyph-name="guilsinglleft" unicode="&#x2039;" horiz-adv-x="679" 
d="M92 460q0 38 30 62t189 148q158 124 240 200l6 -6l-313 -409l313 -404l-6 -6q-53 45 -221 181t-203 166t-35 68z" />
    <glyph glyph-name="guilsinglright" unicode="&#x203a;" horiz-adv-x="679" 
d="M588 460q0 -38 -35 -68t-203 -166t-221 -181l-6 6l313 404l-313 409l6 6q80 -76 238 -199q159 -124 190 -149q31 -24 31 -62z" />
    <glyph glyph-name="fraction" unicode="&#x2044;" horiz-adv-x="659" 
d="M-215 -412l-39 21l1045 1925l40 -21z" />
    <glyph glyph-name="fraction" unicode="&#x2215;" horiz-adv-x="659" 
d="M-215 -412l-39 21l1045 1925l40 -21z" />
    <glyph glyph-name="Euro" unicode="&#x20ac;" horiz-adv-x="1140" 
d="M684 -29q-199 0 -323 135t-146 390h-152v22h150q-4 111 2 184h-152v23h156q31 237 168 391t350 154q160 0 251 -72t91 -168q-1 -63 -27 -100t-67 -37t-65 28q-24 29 -23 65q0 36 23 77t22 72q-8 53 -68 88t-145 34q-145 0 -236 -145t-108 -387h481v-23h-483
q-2 -70 2 -184h399v-22h-397q14 -201 103 -329t249 -128q229 0 351 260l10 -6q-68 -154 -163 -238t-253 -84z" />
    <glyph glyph-name="copyrightsound" unicode="&#x2117;" horiz-adv-x="1923" 
d="M903 483h76q166 0 217 177q10 36 10 63q0 88 -50 165t-150 77h-103v-482zM963 -322q333 0 579 246t246 588t-246 588t-580 246t-581 -245q-246 -245 -246 -587q0 -225 114 -419q115 -193 305 -305t409 -112zM1841 514q0 -362 -262 -624t-617 -261q-355 0 -618 261
q-262 260 -262 622t262 622t619 261q171 0 333 -71q332 -146 473 -469q72 -163 72 -341zM580 51v8q76 5 122 21t48 61v742q0 51 -48 63q-82 23 -129 25v8h514q131 0 215 -60t82 -161q0 -131 -105 -210t-253 -79h-123v-328q0 -47 42 -61t151 -21v-8h-516z" />
    <glyph glyph-name="trademark" unicode="&#x2122;" horiz-adv-x="1288" 
d="M166 887v4q66 10 67 10q25 8 25 33v455h-31q-59 -1 -78 -3t-43 -51t-34 -88h-6v152h460v-152h-6q-45 135 -76 139q-18 2 -61 3h-45v-451q0 -25 22 -35l66 -12v-4h-260zM600 887v4q63 10 76 18q25 16 24 101v299q0 47 -22 61q-37 23 -72 23v6h174l158 -387l115 319
q18 51 20 68h172v-6q-20 0 -63 -13q-20 -8 -21 -34v-406q0 -27 21 -35q10 -6 65 -14v-4h-260v4q46 0 76 12q20 12 20 37v397h-12l-160 -444h-8l-39 106l-137 340h-12v-323q0 -80 20 -98t84 -27v-4h-219z" />
    <glyph glyph-name="minus" unicode="&#x2212;" horiz-adv-x="1138" 
d="M76 504v55h987v-55h-987z" />
    <glyph glyph-name="lessequal" unicode="&#x2264;" horiz-adv-x="1138" 
d="M117 0v53h905v-53h-905zM1014 133l-905 440v41l905 441v-60l-830 -401l830 -401v-60z" />
    <glyph glyph-name="greaterequal" unicode="&#x2265;" horiz-adv-x="1138" 
d="M117 0v53h905v-53h-905zM125 133v60l829 401l-829 401v60l905 -441v-41z" />
    <glyph glyph-name="apple" unicode="&#xf8ff;" horiz-adv-x="1255" 
d="M599 426q58 0 97 41t39 101t-39 100t-97 41q-58 0 -98 -40q-40 -39 -40 -99t40 -102t98 -42zM55 792q0 64 45 111t111 47q94 0 137 -86q8 -14 26 -73t52 -93l31 2q57 61 141 62l23 14q0 57 -35 126q-35 70 -35 122t45 94t111 41q67 0 109 -46t42 -100t-20 -86t-46 -47
t-60 -46t-54 -68l8 -25q78 -41 98 -118l25 -13q47 16 112 80t128 64t107 -46t44 -110t-44 -110q-44 -44 -101 -44t-124 48t-122 55l-18 -17q-12 -72 -80 -122l-2 -21q37 -47 108 -80q113 -53 113 -155q0 -60 -47 -108t-111 -48t-110 44q-45 44 -46 110q0 29 19 88
q18 59 18 104v23l-14 10q-14 -2 -58 -2t-98 37l-26 -2q-31 -45 -43 -125q-29 -170 -160 -170q-63 0 -111 46q-47 45 -47 111t49 110t135 44t138 27l6 28q-33 74 -14 139l-11 27q-18 6 -55 6l-131 -14q-68 0 -113 46q-45 45 -45 109z" />
    <glyph glyph-name="e.ordn" horiz-adv-x="780" 
d="M246 969l338 2q0 99 -22 165q-42 123 -132 122q-90 0 -134 -84t-50 -205zM440 569q-154 1 -242 103t-89 246q0 144 91 248t227 104t214 -85t78 -204v-31h-475q4 -309 239 -309q168 0 244 121l8 -6q-45 -82 -127 -134t-168 -53z" />
    <glyph glyph-name="R.salt" horiz-adv-x="1439" 
d="M479 725h168q143 0 238 84q94 84 94 250t-79 246t-206 79h-215v-659zM109 0v8q102 6 141 21q63 25 63 104v1129q-1 82 -69 104t-142 27v6h699q147 0 264 -86t117 -234q0 -270 -420 -356v-8q297 -61 381 -273q12 -31 92 -270q45 -133 123 -149q51 -10 123 -15v-8h-398
q-97 475 -246 633q-71 76 -196 76h-162v-576q0 -82 64 -106q31 -12 153 -19v-8h-587z" />
    <glyph glyph-name="fi" horiz-adv-x="1138" 
d="M760 1276q0 86 41 127q-2 23 -11 45q-10 22 -46 46t-93 24q-119 0 -204 -121t-85 -350v-123h363l211 16l10 -10v-803q0 -74 55 -94q57 -23 91 -25v-8h-433v8q61 4 86 12q59 18 60 93v680q-6 68 -29 102h-414v-770q0 -72 50 -92t135 -25v-8h-473v8q53 2 80 10q66 18 65 95
v782h-211v29h211v65q0 244 150 406q123 135 295 135q139 0 217 -62t77 -155q0 -41 -24 -79t-68 -38q-42 0 -74 23t-32 57z" />
    <glyph glyph-name="fl" horiz-adv-x="1144" 
d="M950 127q0 -110 146 -119v-8h-434v8q66 4 90 12q55 18 55 95v1280q-86 119 -186 118q-125 0 -187 -102t-69 -340q-2 -31 -3 -147h256v-29h-256v-770q0 -74 54 -94q45 -18 131 -23v-8h-473v8q66 4 90 12q55 18 55 95v780h-211v29h211v63q0 274 137 424q111 119 301 119
q90 0 168 -39l115 37l10 -8v-1393z" />
    <glyph glyph-name="ampersand.salt" horiz-adv-x="1771" 
d="M1524 1413q-54 1 -80 -23t-25 -42q4 -6 30 -18q62 -27 62 -75q0 -90 -77 -90q-39 0 -71 31t-32 88t49 101q49 45 133 45q83 0 143 -56t60 -164q0 -110 -90 -176t-250 -65q195 -84 195 -353q0 -168 -141 -350t-388 -259q-139 -44 -301 -44q-240 0 -429 141t-189 340
q0 121 58 189t165 125q-68 47 -106 104t-39 164q0 107 91 191q91 83 223 83t219 -76t116 -194l-8 -4q-100 188 -264 188q-109 0 -181 -80q-71 -80 -71 -200q0 -119 39 -164q137 49 194 49q119 0 119 -78t-78 -77q-111 0 -244 81q-56 -25 -91 -93q-26 -48 -25 -107
q0 -187 173 -317t505 -124q278 4 456 164t178 359q0 168 -107 259q-108 91 -241 91q-96 0 -172 -58q-76 -57 -76 -147t54 -140t126 -50q70 0 130 36q-11 5 -38 16q-28 11 -34 15t-16 10q-45 27 -45 76t27 75q28 26 64 26t74 -29q37 -29 37 -93t-48 -110t-134 -47
q-86 1 -161 63t-74 179q0 78 34 136q59 98 198 131q54 13 107 13l224 -10q86 0 145 47q60 47 60 125t-54 125t-108 47z" />
    <glyph glyph-name="NUL" horiz-adv-x="0" 
 />
    <glyph glyph-name="DEL" horiz-adv-x="0" 
 />
    </font>
</defs>
</svg>
